<svg width="15634" height="4482" viewBox="0 0 15634 4482" fill="none" xmlns="http://www.w3.org/2000/svg">
<path d="M12247.4 0.0167534C12265.2 0.0256962 12283 0.0240292 12300.9 0.0149338C12392.8 -0.0306565 12484.7 -0.0512433 12576.6 1.20536C12577.4 1.21587 12578.2 1.22637 12579 1.2372C12614.2 1.71973 12649.5 2.3395 12684.7 2.98124C12685.5 2.99524 12686.3 3.00924 12687.1 3.02366C12704.7 3.34446 12722.3 3.68538 12739.9 4.05726C12740.7 4.07306 12741.4 4.08885 12742.2 4.10513C12816.8 5.68432 12891.5 7.695 13742.2 54.2757C13743.3 54.3706 13744.5 54.4654 13745.6 54.5632C13859.9 64.1219 13973.9 75.5274 14458.7 140.858C14461.2 141.27 14463.7 141.681 14466.1 142.092C14548.8 155.786 14631.1 171.125 14890.2 230.276C14891.4 230.576 14892.6 230.877 14893.8 231.187C14990.9 256.063 15087.2 285.418 15263.2 355.276C15264.2 355.697 15264.2 355.697 15265.1 356.127C15304.7 373.689 15343.7 392.615 15381.2 414.276C15382.1 414.774 15382.1 414.774 15383 415.283C15397.2 423.528 15411.5 431.784 15425.2 440.954C15427.4 442.376 15429.5 443.783 15431.6 445.19C15453.3 459.458 15474.4 474.57 15494.2 491.276C15495.2 492.142 15496.3 493.008 15497.3 493.873C15503.8 499.311 15510.2 504.907 15516.4 510.674C15518.9 512.994 15521.5 515.264 15524 517.526C15533 525.603 15541.8 534.173 15549.6 543.424C15551.5 545.581 15553.4 547.637 15555.3 549.713C15561.2 556.198 15566.4 563.165 15571.6 570.15C15573.1 572.097 15574.5 574.033 15576 575.967C15602 610.182 15620.4 650.018 15629 692.088C15629.3 693.517 15629.3 693.517 15629.6 694.975C15632.7 710.879 15633.6 726.673 15633.5 742.838C15633.5 744.215 15633.5 744.215 15633.5 745.62C15633.2 816.041 15604.9 883.955 15565.2 941.276C15564.7 941.992 15564.2 942.707 15563.7 943.445C15546.3 968.807 15527.3 993.129 15506.5 1015.81C15504.6 1017.86 15502.8 1019.93 15501 1022.03C15490.2 1034.31 15478.7 1045.89 15467.2 1057.4C15464.8 1059.8 15462.4 1062.2 15460 1064.6C15458.5 1066.15 15456.9 1067.7 15455.4 1069.24C15454.7 1069.95 15454 1070.65 15453.2 1071.38C15449.3 1075.3 15445.3 1079.06 15441 1082.68C15437.8 1085.46 15434.8 1088.37 15431.7 1091.28C15426.6 1096.04 15421.5 1100.75 15416.2 1105.28C15415.2 1106.16 15414.1 1107.05 15413.1 1107.94C15410.7 1109.99 15408.3 1112.04 15405.9 1114.09C15403.5 1116.19 15401 1118.29 15398.6 1120.4C15391.5 1126.46 15384.4 1132.42 15377.2 1138.28C15375.9 1139.31 15374.7 1140.34 15373.4 1141.37C15366.3 1147.23 15359 1153.01 15351.7 1158.63C15349.1 1160.57 15346.6 1162.54 15344.1 1164.51C15328.2 1176.98 15311.8 1188.86 15295.4 1200.66C15293.2 1202.3 15290.9 1203.94 15288.6 1205.59C15279.6 1212.15 15270.5 1218.58 15261.3 1224.86C15259.1 1226.33 15257 1227.81 15254.8 1229.29C15185.2 1277.2 15112.8 1321.2 15039.1 1362.64C15037.1 1363.75 15035.2 1364.87 15033.2 1365.99C15019.8 1373.5 15006.5 1380.89 14993 1388.14C14988.4 1390.61 14983.9 1393.09 14979.3 1395.59C14957.6 1407.51 14935.6 1419.09 14913.6 1430.45C14908.3 1433.17 14903 1435.89 14897.7 1438.64C14879.8 1447.99 14861.7 1457.13 14843.5 1466.18C14839.6 1468.14 14835.7 1470.11 14831.8 1472.07C14815.4 1480.25 14799 1488.36 14782.5 1496.19C14779.2 1497.76 14775.9 1499.36 14772.6 1500.96C14758.6 1507.75 14744.5 1514.41 14730.4 1520.94C14725.4 1523.24 14720.5 1525.56 14715.5 1527.9C14714.5 1528.36 14714.5 1528.36 14713.5 1528.83C14712.5 1529.29 14712.5 1529.29 14711.5 1529.76C14696.1 1537.05 14680.5 1544.19 14664.9 1551.24C14660.2 1553.37 14655.5 1555.5 14650.8 1557.64C14625.7 1569.06 14600.5 1580.26 14575.2 1591.28C14573.7 1591.94 14573.7 1591.94 14572.1 1592.63C14529.2 1611.34 14486.1 1629.72 14442.8 1647.68C14437.6 1649.86 14432.3 1652.05 14427.1 1654.26C14390.1 1669.8 14352.8 1684.53 14315.5 1699.38C14313.3 1700.23 14311.2 1701.08 14309.1 1701.93C14204.8 1743.49 14099.6 1782.92 13863.1 1867.28C13860.1 1868.31 13857.1 1869.34 13854.2 1870.37C13823.6 1881.02 13792.9 1891.5 13762.2 1901.88C13755 1904.33 13747.8 1906.79 13740.5 1909.26C13717.7 1917.08 13694.8 1924.8 13671.8 1932.46C13669.6 1933.21 13667.3 1933.96 13665.1 1934.71C13661.6 1935.9 13658 1937.08 13654.5 1938.26C13653.2 1938.7 13651.8 1939.14 13650.5 1939.58C13648.7 1940.19 13646.9 1940.79 13645.1 1941.4C13644.1 1941.74 13643 1942.08 13642 1942.43C13639.4 1943.21 13636.9 1943.8 13634.2 1944.28C13634.2 1943.62 13634.2 1942.96 13634.2 1942.28C13635 1941.97 13635.8 1941.66 13636.7 1941.34C13671.8 1928.05 13706.6 1914.01 13741.4 1900C13743.1 1899.33 13744.7 1898.66 13746.4 1897.99C13773.1 1887.27 13799.7 1876.3 13826.2 1865.28C13827.1 1864.91 13828 1864.54 13828.9 1864.16C13874.9 1845.06 13920.7 1825.43 13966.2 1805.28C13967.5 1804.7 13968.8 1804.13 13970.1 1803.56C13977.8 1800.15 13985.5 1796.72 13993.2 1793.28C13994.3 1792.78 13995.4 1792.28 13996.6 1791.77C14045.2 1770.11 14093.4 1747.76 14141.3 1724.66C14144.1 1723.33 14146.9 1722 14149.6 1720.68C14164.1 1713.76 14178.6 1706.71 14193 1699.65C14194 1699.16 14195 1698.68 14196 1698.17C14222.2 1685.37 14222.2 1685.37 14248.1 1672.02C14253.7 1669.08 14259.2 1666.2 14264.8 1663.35C14265.6 1662.94 14266.4 1662.54 14267.2 1662.12C14268.8 1661.3 14270.4 1660.48 14272 1659.66C14284.2 1653.49 14296.2 1647.3 14308.1 1640.72C14315.4 1636.7 14322.7 1632.82 14330 1628.95C14341.2 1623.08 14352.2 1617.11 14363.1 1610.88C14369.4 1607.28 14375.8 1603.79 14382.1 1600.34C14391.9 1595.06 14401.5 1589.52 14411 1583.9C14416.2 1580.84 14421.5 1577.82 14426.7 1574.82C14440.6 1566.84 14454.4 1558.56 14468 1550.2C14472.5 1547.49 14477 1544.82 14481.5 1542.15C14508.9 1525.76 14535.7 1508.4 14562.2 1490.61C14566 1488.07 14569.8 1485.55 14573.6 1483.04C14584.2 1476.02 14594.7 1468.87 14605 1461.35C14609.2 1458.29 14613.4 1455.31 14617.6 1452.34C14644.2 1433.67 14670.2 1413.97 14695.2 1393.28C14697 1391.82 14698.8 1390.36 14700.6 1388.9C14706.3 1384.24 14711.9 1379.5 14717.5 1374.73C14718.7 1373.75 14719.8 1372.76 14721 1371.78C14728 1365.79 14735 1359.74 14741.8 1353.49C14743.8 1351.64 14745.9 1349.82 14748 1348.03C14760.4 1337.17 14772.1 1325.53 14783.8 1313.85C14786.2 1311.38 14788.7 1308.91 14791.2 1306.45C14792.8 1304.85 14794.4 1303.26 14796 1301.66C14796.7 1300.93 14797.4 1300.21 14798.2 1299.46C14802.2 1295.44 14806 1291.31 14809.7 1287C14811.8 1284.61 14813.9 1282.29 14816.1 1279.96C14820.2 1275.45 14824.1 1270.81 14827.9 1266.06C14830.2 1263.28 14832.5 1260.56 14834.8 1257.84C14855.1 1233.59 14873.1 1207.21 14888 1179.41C14889.1 1177.39 14890.3 1175.39 14891.4 1173.39C14923.7 1115.72 14935.8 1046.37 14918.1 982.259C14905.9 940.52 14882.4 904.038 14853.2 872.276C14852.2 871.102 14852.2 871.102 14851.1 869.905C14843.1 860.853 14834.7 852.007 14825.5 844.19C14823.6 842.622 14821.8 841.032 14820 839.424C14811.4 831.818 14802.5 824.722 14793.3 817.84C14791.3 816.359 14789.4 814.86 14787.4 813.354C14756.9 789.848 14723.1 770.451 14689.2 752.276C14688.3 751.8 14687.4 751.325 14686.5 750.836C14631 721.169 14572.7 697.331 14513.5 676.087C14511.2 675.286 14509 674.48 14506.8 673.674C14414.7 640.372 14319.5 615.077 14167.2 580.702C14165.2 580.28 14163.2 579.856 14161.3 579.432C14079.6 562.008 13997.4 547.46 12495.8 429.151C12494.7 429.131 12493.6 429.112 12492.5 429.091C12421.4 427.823 12350.3 427.113 12279.1 427.108C12273.4 427.108 12267.7 427.106 12262 427.103C12242.9 427.094 12223.7 427.089 12204.5 427.09C12203.5 427.09 12202.5 427.09 12201.4 427.09C12199.9 427.09 12199.9 427.09 12198.3 427.09C12183.1 427.091 12167.8 427.083 12152.5 427.07C12068.9 426.999 11985.3 427.084 11901.7 428.201C11900.5 428.217 11900.5 428.217 11899.3 428.233C11862.8 428.721 11826.3 429.33 11789.8 429.981C11789 429.995 11788.2 430.009 11787.4 430.024C11709.2 431.419 11631.1 433.256 10048.2 518.276C10047.4 518.341 10046.5 518.406 10045.7 518.474C9954.74 525.635 9863.83 533.258 9325.9 583.007C9323.21 583.275 9320.52 583.543 9317.83 583.811C9221.2 593.435 9124.62 603.444 7873.21 755.276C7872.41 755.385 7871.61 755.494 7870.79 755.607C7784.9 767.384 7699.05 779.487 6754.35 924.26C6749.5 925.062 6744.65 925.864 6739.8 926.665C6662.5 939.448 6585.23 952.412 6298.21 1002.28C6297.46 1002.41 6296.71 1002.54 6295.93 1002.68C6220.38 1016.1 6144.86 1029.72 5673.36 1118.66C5670.19 1119.28 5667.01 1119.9 5663.84 1120.52C5578.17 1137.23 5492.55 1154.22 5291.21 1195.28C5289.28 1195.67 5289.28 1195.67 5287.31 1196.08C5212.61 1211.54 5137.97 1227.3 4371.94 1399.62C4369.13 1400.29 4366.33 1400.96 4363.52 1401.63C4298.02 1417.26 4232.59 1433.15 4167.21 1449.28C4166.06 1449.56 4164.91 1449.84 4163.73 1450.13C4082.28 1470.22 4000.88 1490.5 3919.69 1511.62C3918.85 1511.83 3918.02 1512.05 3917.16 1512.28C3916.33 1512.49 3915.5 1512.71 3914.64 1512.93C3912.97 1513.36 3911.3 1513.8 3909.63 1514.23C3908.81 1514.45 3907.99 1514.66 3907.14 1514.88C3895.64 1517.87 3884.14 1520.84 3872.63 1523.79C3871.92 1523.97 3871.21 1524.15 3870.48 1524.34C3869.06 1524.7 3867.64 1525.06 3866.21 1525.43C3865.51 1525.61 3864.81 1525.79 3864.08 1525.97C3863.03 1526.24 3863.03 1526.24 3861.96 1526.52C3773.61 1549.14 3685.51 1572.78 3004.15 1768.15C2999.31 1769.63 2994.48 1771.11 2989.65 1772.59C2948.28 1785.24 2907 1798.15 2865.76 1811.2C2860.84 1812.76 2855.92 1814.32 2851 1815.87C2779.1 1838.58 2707.42 1861.95 2612.82 1893.34C2610.09 1894.25 2607.36 1895.16 2604.63 1896.07C2583.11 1903.21 2561.65 1910.52 2540.25 1918.02C2527.54 1922.47 2514.82 1926.83 2502.06 1931.13C2479.09 1938.86 2456.23 1946.87 2433.4 1955.01C2425.99 1957.65 2418.57 1960.26 2411.14 1962.86C2382.52 1972.88 2353.98 1983.11 2325.5 1993.52C2317.6 1996.41 2309.69 1999.28 2301.77 2002.14C2268.91 2014.02 2236.18 2026.21 2203.48 2038.53C2197.99 2040.61 2192.49 2042.67 2186.99 2044.74C2103.98 2075.92 2021.47 2108.46 1939.52 2142.32C1937.12 2143.31 1934.73 2144.3 1932.33 2145.29C1893.58 2161.28 1854.94 2177.55 1816.49 2194.28C1814.18 2195.29 1811.87 2196.29 1809.55 2197.3C1773.38 2212.98 1737.33 2228.91 1701.51 2245.38C1696.52 2247.68 1691.53 2249.95 1686.53 2252.23C1658.63 2264.92 1630.92 2277.99 1603.32 2291.33C1598.64 2293.59 1593.94 2295.83 1589.25 2298.07C1535.96 2323.44 1535.96 2323.44 1483.48 2350.43C1478.37 2353.15 1473.23 2355.81 1468.07 2358.45C1466.97 2359.02 1466.97 2359.02 1465.83 2359.6C1464.3 2360.38 1462.77 2361.17 1461.23 2361.95C1449.87 2367.77 1438.54 2373.63 1427.36 2379.8C1420.35 2383.67 1413.29 2387.43 1406.23 2391.18C1395.7 2396.76 1385.25 2402.44 1374.9 2408.34C1367.85 2412.36 1360.75 2416.29 1353.64 2420.19C1341.09 2427.07 1328.68 2434.16 1316.35 2441.43C1312.99 2443.41 1309.62 2445.37 1306.25 2447.33C1281.3 2461.88 1256.65 2476.89 1232.21 2492.28C1231.35 2492.82 1230.49 2493.36 1229.6 2493.91C1227.16 2495.45 1224.71 2496.99 1222.27 2498.53C1221.26 2499.16 1221.26 2499.16 1220.23 2499.81C1206.41 2508.54 1192.74 2517.53 1179.14 2526.61C1176.64 2528.28 1174.15 2529.94 1171.65 2531.6C1158.6 2540.3 1145.63 2549.09 1132.83 2558.15C1132.14 2558.64 1131.45 2559.13 1130.73 2559.64C1122.52 2565.46 1114.35 2571.35 1106.21 2577.28C1105.43 2577.84 1104.65 2578.41 1103.85 2578.99C1092.83 2587.02 1081.98 2595.24 1071.26 2603.66C1069.35 2605.16 1067.44 2606.65 1065.53 2608.14C1057.27 2614.59 1049.13 2621.17 1041.01 2627.8C1039.43 2629.1 1037.83 2630.39 1036.24 2631.68C1030.01 2636.74 1023.89 2641.93 1017.81 2647.18C1015.46 2649.2 1013.1 2651.22 1010.73 2653.22C1003.77 2659.1 997.026 2665.16 990.394 2671.42C987.364 2674.27 984.324 2677.08 981.145 2679.78C976.631 2683.65 972.522 2687.93 968.344 2692.16C965.348 2695.18 962.351 2698.11 959.083 2700.84C954.958 2704.33 951.408 2708.3 947.781 2712.3C944.572 2715.82 941.291 2719.24 937.895 2722.59C934.429 2726.02 931.146 2729.52 927.977 2733.23C925.97 2735.55 923.903 2737.82 921.833 2740.09C918.01 2744.33 914.361 2748.68 910.774 2753.12C908.87 2755.47 906.934 2757.8 904.985 2760.12C896.559 2770.17 888.741 2780.54 881.208 2791.28C880.738 2791.94 880.268 2792.6 879.784 2793.29C835.331 2856.05 802.504 2932.61 815.374 3010.88C823.717 3057.16 844.753 3097.09 874.208 3133.28C874.868 3134.09 874.868 3134.09 875.542 3134.93C883.227 3144.39 891.746 3153.02 900.333 3161.65C900.885 3162.21 901.439 3162.77 902.008 3163.34C908.356 3169.74 914.778 3175.79 921.851 3181.38C924.097 3183.19 926.221 3185.07 928.333 3187.03C979.712 3233.11 1045.82 3267.05 1108.21 3295.28C1109.49 3295.86 1110.78 3296.44 1112.07 3297.03C1124.38 3302.6 1136.7 3308.14 1149.21 3313.28C1149.21 3313.61 1149.21 3313.94 1149.21 3314.28C1141.05 3313.68 1133.08 3312.51 1125.04 3311.08C1123.12 3310.74 1123.12 3310.74 1121.16 3310.4C1117.66 3309.79 1114.16 3309.17 1110.66 3308.54C1108.43 3308.15 1106.2 3307.75 1103.97 3307.36C1024.63 3293.27 945.58 3277.7 791.48 3242.08C788.112 3241.25 784.744 3240.43 781.375 3239.6C712.69 3222.78 644.579 3203.77 577.208 3182.28C575.765 3181.82 575.765 3181.82 574.294 3181.35C484.113 3152.6 395.726 3118.92 265.208 3053.28C263.325 3052.23 261.442 3051.18 259.559 3050.14C225.359 3031.06 192.522 3009.79 161.208 2986.28C160.586 2985.81 159.965 2985.35 159.325 2984.87C152.115 2979.45 145.159 2973.78 138.313 2967.91C135.555 2965.55 132.733 2963.29 129.895 2961.03C118.397 2951.62 107.891 2941.06 97.3571 2930.6C96.3163 2929.57 95.274 2928.54 94.2301 2927.51C88.1614 2921.51 82.4497 2915.37 77.1422 2908.68C75.3045 2906.4 73.3873 2904.24 71.3951 2902.09C61.5359 2891.09 53.13 2878.71 45.2077 2866.28C44.8411 2865.7 44.475 2865.13 44.0973 2864.53C4.9733 2802.59 -9.33737 2729.91 6.0934 2658.13C8.61502 2647.03 11.7741 2636.13 15.2077 2625.28C15.4727 2624.43 15.7383 2623.59 16.0114 2622.72C37.4467 2555.43 81.2979 2494.49 128.758 2442.97C130.727 2440.8 132.661 2438.62 134.583 2436.41C145.426 2423.99 157.067 2412.31 168.708 2400.65C169.315 2400.04 169.923 2399.43 170.549 2398.8C182.525 2386.79 182.525 2386.79 188.59 2381.68C190.384 2380.12 192.045 2378.47 193.708 2376.78C196.654 2373.78 199.737 2371.02 202.919 2368.28C205.143 2366.33 207.32 2364.33 209.489 2362.32C214.695 2357.49 220.026 2352.91 225.559 2348.46C228.18 2346.3 230.699 2344.06 233.208 2341.78C237.853 2337.55 242.665 2333.58 247.546 2329.63C249.436 2328.09 251.315 2326.54 253.192 2324.98C261.486 2318.12 269.835 2311.34 278.339 2304.73C280.367 2303.15 282.389 2301.56 284.411 2299.98C293.693 2292.7 303.1 2285.61 312.618 2278.65C316.862 2275.54 321.07 2272.38 325.27 2269.21C337.596 2259.94 350.094 2250.93 362.873 2242.29C366.546 2239.8 370.198 2237.29 373.809 2234.71C385.427 2226.43 397.278 2218.54 409.208 2210.71C411.106 2209.46 413.005 2208.21 414.903 2206.97C429.022 2197.68 443.156 2188.41 457.458 2179.4C458.24 2178.91 459.021 2178.42 459.827 2177.91C495.823 2155.26 532.315 2133.43 569.208 2112.28C570.579 2111.49 570.58 2111.49 571.979 2110.68C604.433 2092.03 637.196 2073.92 670.208 2056.28C671.445 2055.61 672.683 2054.95 673.92 2054.29C690.237 2045.56 706.61 2036.95 723.079 2028.51C724.342 2027.86 725.605 2027.22 726.868 2026.57C727.516 2026.24 728.165 2025.9 728.834 2025.56C732.596 2023.63 736.348 2021.68 740.09 2019.71C756.151 2011.27 772.354 2003.13 788.586 1995.02C792.436 1993.1 796.285 1991.17 800.132 1989.25C816.323 1981.14 832.543 1973.12 848.908 1965.37C852.218 1963.8 855.516 1962.2 858.813 1960.6C871.606 1954.38 884.435 1948.27 897.346 1942.31C905.831 1938.39 914.288 1934.41 922.738 1930.42C937.945 1923.24 953.218 1916.21 968.545 1909.29C973.236 1907.17 977.923 1905.04 982.608 1902.91C1007.72 1891.49 1032.92 1880.29 1058.21 1869.28C1059.74 1868.61 1059.74 1868.61 1061.31 1867.93C1104.24 1849.21 1147.3 1830.83 1190.56 1812.87C1195.82 1810.69 1201.07 1808.5 1206.32 1806.29C1243.32 1790.75 1280.66 1776.02 1317.95 1761.17C1320.09 1760.32 1322.22 1759.47 1324.36 1758.62C1425.3 1718.4 1527.04 1680.27 1629.21 1643.28C1630.82 1642.69 1630.82 1642.69 1632.46 1642.1C1659.32 1632.37 1686.21 1622.77 1713.17 1613.31C1715.43 1612.52 1717.69 1611.73 1719.95 1610.94C1721.06 1610.55 1722.17 1610.16 1723.32 1609.75C1730.73 1607.15 1738.13 1604.53 1745.53 1601.9C1771.06 1592.81 1796.67 1583.95 1822.35 1575.28C1831.2 1572.28 1840.04 1569.26 1848.88 1566.24C1856.65 1563.58 1864.43 1560.93 1872.21 1558.28C1873.19 1557.94 1874.17 1557.61 1875.18 1557.26C1929.06 1538.89 1983.01 1520.72 2037.18 1503.23C2043.03 1501.33 2048.88 1499.43 2054.73 1497.53C2088.68 1486.51 2122.66 1475.6 2156.71 1464.9C2165.81 1462.04 2174.9 1459.16 2183.99 1456.28C2224.32 1443.5 2264.7 1430.87 2305.16 1418.51C2308.56 1417.47 2311.96 1416.43 2315.37 1415.39C2398.04 1390.11 2480.85 1365.23 2633.91 1320.94C2636.08 1320.31 2638.25 1319.69 2640.42 1319.06C2657.67 1314.1 2674.94 1309.17 2692.21 1304.28C2692.88 1304.09 2693.54 1303.9 2694.23 1303.7C2789.85 1276.58 2885.66 1250.13 3272.21 1147.86C3280.15 1145.83 3288.1 1143.79 3296.04 1141.75C3380.48 1120.04 3465.04 1098.72 3566.82 1074.01C3578.84 1071.1 3590.85 1068.17 3602.86 1065.24C3708.14 1039.56 3813.62 1014.68 3919.21 990.276C3920.35 990.011 3921.49 989.747 3922.67 989.475C4021.21 966.706 4119.86 944.448 4848.44 790.036C4852.13 789.29 4855.83 788.544 4859.52 787.798C4938.5 771.849 5017.57 756.395 5096.67 741.09C5106.3 739.227 5115.93 737.36 5125.56 735.489C5216.13 717.896 5306.8 700.819 6112.21 558.276C6112.95 558.152 6113.69 558.028 6114.45 557.901C6192.71 544.797 6271.02 531.998 7036.75 414.63C7038.4 414.392 7040.05 414.154 7041.69 413.917C7131.99 400.88 7222.31 388.023 7791.21 312.276C7792.18 312.152 7793.16 312.029 7794.16 311.902C7897.49 298.83 8000.83 285.938 8352.51 244.583C8355.21 244.276 8357.9 243.968 8360.59 243.661C8457.31 232.624 8554.07 221.898 9309.21 146.276C9310.12 146.192 9311.03 146.108 9311.98 146.022C9404.05 137.603 9496.16 129.544 11769.5 4.34909C11773.1 4.27711 11776.8 4.20452 11780.5 4.13175C11782.8 4.085 11785.2 4.03824 11787.5 3.9915C11788.5 3.97167 11789.5 3.95185 11790.5 3.93142C11821 3.32981 11851.4 2.83981 11881.9 2.37254C11886.1 2.30843 11890.3 2.24385 11894.4 2.17888C11989.7 0.698253 12085 0.0263537 12247.4 0.0167534Z" fill="#175086"/>
<path d="M10800.2 1743.28C11002.2 1743.28 11204.1 1743.28 11412.2 1743.28C11416.8 1752.52 11421.4 1761.76 11426.2 1771.28C11429.9 1778.38 11429.9 1778.38 11433.7 1785.47C11439.4 1796.38 11444.8 1807.48 11450.3 1818.52C11455.9 1829.78 11461.6 1841.01 11467.4 1852.12C11473.4 1863.43 11479.1 1874.92 11484.7 1886.38C11489.8 1896.56 11494.9 1906.73 11500.2 1916.78C11506.6 1928.86 11512.7 1941.13 11518.7 1953.38C11523.8 1963.54 11528.9 1973.69 11534.2 1983.71C11540.8 1996.19 11547 2008.87 11553.3 2021.52C11558.9 2032.78 11564.6 2044.01 11570.4 2055.12C11576.4 2066.43 11582.1 2077.92 11587.7 2089.38C11592.8 2099.54 11597.9 2109.69 11603.2 2119.71C11609.8 2132.19 11616 2144.87 11622.3 2157.52C11627.9 2168.78 11633.6 2180.01 11639.4 2191.12C11645.4 2202.43 11651.1 2213.92 11656.7 2225.38C11661.8 2235.56 11666.9 2245.73 11672.2 2255.78C11678.6 2267.86 11684.7 2280.13 11690.7 2292.38C11695.8 2302.54 11700.9 2312.69 11706.2 2322.71C11712.8 2335.19 11719 2347.87 11725.3 2360.52C11730.9 2371.78 11736.6 2383.01 11742.4 2394.12C11748.4 2405.43 11754.1 2416.92 11759.7 2428.38C11764.8 2438.56 11769.9 2448.73 11775.2 2458.78C11781.6 2470.86 11787.7 2483.13 11793.7 2495.38C11798.8 2505.54 11803.9 2515.69 11809.2 2525.71C11815.8 2538.19 11822 2550.87 11828.3 2563.52C11833.9 2574.78 11839.6 2586.01 11845.4 2597.12C11851.4 2608.43 11857.1 2619.92 11862.7 2631.38C11867.8 2641.56 11872.9 2651.73 11878.2 2661.78C11884.6 2673.86 11890.7 2686.13 11896.7 2698.38C11901.8 2708.54 11906.9 2718.69 11912.2 2728.71C11918.8 2741.19 11925 2753.87 11931.3 2766.52C11936.9 2777.78 11942.6 2789.01 11948.4 2800.12C11954.4 2811.43 11960.1 2822.92 11965.7 2834.38C11970.8 2844.56 11975.9 2854.73 11981.2 2864.78C11987.6 2876.86 11993.7 2889.13 11999.7 2901.38C12004.8 2911.54 12009.9 2921.69 12015.2 2931.71C12021.8 2944.19 12028 2956.87 12034.3 2969.52C12039.9 2980.78 12045.6 2992.01 12051.4 3003.12C12057.4 3014.43 12063.1 3025.92 12068.7 3037.38C12074.2 3048.31 12079.7 3059.22 12085.4 3070C12090.5 3079.57 12095.3 3089.26 12100.1 3098.94C12101.7 3102.2 12103.4 3105.45 12105 3108.7C12106 3110.79 12107.1 3112.87 12108.1 3114.96C12108.8 3116.4 12108.8 3116.4 12109.6 3117.88C12110 3118.78 12110.5 3119.68 12110.9 3120.6C12111.5 3121.78 12111.5 3121.78 12112.1 3122.98C12113.3 3125.38 12114.2 3127.81 12115.2 3130.28C12115.9 3130.28 12116.5 3130.28 12117.2 3130.28C12117.6 3128.98 12117.6 3128.98 12118 3127.65C12119.2 3124.35 12120.5 3121.35 12122.1 3118.23C12122.7 3117.07 12123.3 3115.92 12123.9 3114.72C12124.3 3113.82 12124.3 3113.82 12124.8 3112.9C12125.7 3111.14 12126.6 3109.37 12127.5 3107.61C12130.9 3100.83 12134.3 3094.11 12137.9 3087.41C12144 3075.8 12149.9 3064.04 12155.7 3052.28C12161.8 3039.93 12168 3027.61 12174.4 3015.44C12179.9 3005.15 12185 2994.7 12190.2 2984.28C12196.2 2972.28 12202.1 2960.31 12208.4 2948.49C12213.9 2938.18 12219 2927.72 12224.2 2917.28C12235.6 2894.29 12235.6 2894.29 12241.2 2883.84C12247.2 2872.43 12253 2860.85 12258.7 2849.28C12264.8 2836.93 12271 2824.61 12277.4 2812.44C12282.9 2802.15 12288 2791.7 12293.2 2781.28C12304.6 2758.29 12304.6 2758.29 12310.2 2747.84C12316.2 2736.43 12322 2724.85 12327.7 2713.28C12333.8 2700.93 12340 2688.61 12346.4 2676.44C12351.9 2666.15 12357 2655.7 12362.2 2645.28C12373.6 2622.29 12373.6 2622.29 12379.2 2611.84C12385.2 2600.43 12391 2588.85 12396.7 2577.28C12402.8 2564.93 12409 2552.61 12415.4 2540.44C12420.9 2530.15 12426 2519.7 12431.2 2509.28C12437.2 2497.28 12443.1 2485.31 12449.4 2473.49C12454.9 2463.18 12460 2452.72 12465.2 2442.28C12476.6 2419.29 12476.6 2419.29 12482.2 2408.84C12488.2 2397.43 12494 2385.85 12499.7 2374.28C12505.8 2361.93 12512 2349.61 12518.4 2337.44C12523.9 2327.15 12529 2316.7 12534.2 2306.28C12545.6 2283.29 12545.6 2283.29 12551.2 2272.84C12557.2 2261.43 12563 2249.85 12568.7 2238.28C12574.8 2225.93 12581 2213.61 12587.4 2201.44C12592.9 2191.15 12598 2180.7 12603.2 2170.28C12614.6 2147.29 12614.6 2147.29 12620.2 2136.84C12626.2 2125.43 12632 2113.85 12637.7 2102.28C12643.8 2089.93 12650 2077.61 12656.4 2065.44C12661.9 2055.15 12667 2044.7 12672.2 2034.28C12678.2 2022.28 12684.1 2010.31 12690.4 1998.49C12695.9 1988.18 12701 1977.72 12706.2 1967.28C12717.6 1944.29 12717.6 1944.29 12723.2 1933.84C12729.2 1922.43 12735 1910.85 12740.7 1899.28C12746.8 1886.93 12753 1874.61 12759.4 1862.44C12764.9 1852.15 12770 1841.7 12775.2 1831.28C12781.2 1819.26 12787.2 1807.28 12793.5 1795.43C12798.7 1785.43 12803.7 1775.28 12808.8 1765.15C12810.7 1761.21 12812.7 1757.27 12814.6 1753.33C12815.1 1752.43 12815.5 1751.54 12816 1750.61C12816.4 1749.79 12816.8 1748.97 12817.2 1748.13C12817.6 1747.4 12818 1746.68 12818.3 1745.94C12819.2 1744.28 12819.2 1744.28 12820.2 1743.28C12821.6 1743.18 12822.9 1743.15 12824.3 1743.15C12825.1 1743.15 12826 1743.15 12826.9 1743.15C12828.4 1743.15 12828.4 1743.15 12829.9 1743.15C12830.9 1743.15 12832 1743.15 12833 1743.15C12836.5 1743.15 12840 1743.15 12843.6 1743.16C12846.1 1743.16 12848.6 1743.15 12851.1 1743.15C12856.7 1743.15 12862.2 1743.15 12867.7 1743.16C12875.9 1743.16 12884.1 1743.16 12892.3 1743.16C12906.1 1743.16 12919.9 1743.16 12933.7 1743.17C12947.3 1743.18 12961 1743.18 12974.6 1743.18C12975.9 1743.18 12975.9 1743.18 12977.2 1743.18C12981.5 1743.18 12985.8 1743.18 12990.1 1743.18C13020.7 1743.18 13051.2 1743.19 13081.8 1743.2C13111.4 1743.21 13141.1 1743.22 13170.8 1743.22C13172.2 1743.22 13172.2 1743.22 13173.6 1743.22C13182.7 1743.22 13191.9 1743.22 13201.1 1743.23C13219.8 1743.23 13238.5 1743.23 13257.2 1743.23C13258.1 1743.23 13258.9 1743.23 13259.8 1743.23C13317.3 1743.24 13374.7 1743.26 13432.2 1743.28C13430.8 1746.32 13429.3 1749.36 13427.9 1752.4C13427.5 1753.26 13427.1 1754.11 13426.7 1754.99C13423.8 1761.12 13420.8 1767.22 13417.8 1773.28C13417.3 1774.19 13416.9 1775.11 13416.4 1776.05C13413 1782.73 13409.6 1789.35 13406 1795.95C13402.7 1802.34 13399.4 1808.8 13396.2 1815.28C13392.2 1823.26 13388.2 1831.18 13384 1839.05C13380.6 1845.41 13377.4 1851.83 13374.2 1858.28C13370.2 1866.26 13366.2 1874.18 13362 1882.05C13358.6 1888.41 13355.4 1894.83 13352.2 1901.28C13348.2 1909.26 13344.2 1917.18 13340 1925.05C13336.6 1931.41 13333.4 1937.83 13330.2 1944.28C13326.2 1952.26 13322.2 1960.18 13318 1968.05C13314.6 1974.41 13311.4 1980.83 13308.2 1987.28C13304.2 1995.26 13300.2 2003.18 13296 2011.05C13292.6 2017.41 13289.4 2023.83 13286.2 2030.28C13282.2 2038.26 13278.2 2046.18 13274 2054.05C13270.6 2060.41 13267.4 2066.83 13264.2 2073.28C13260.2 2081.26 13256.2 2089.18 13252 2097.05C13248.6 2103.41 13245.4 2109.83 13242.2 2116.28C13238.2 2124.26 13234.2 2132.18 13230 2140.05C13226.6 2146.41 13223.4 2152.83 13220.2 2159.28C13216.2 2167.26 13212.2 2175.18 13208 2183.05C13204.6 2189.41 13201.4 2195.83 13198.2 2202.28C13194.2 2210.26 13190.2 2218.18 13186 2226.05C13182.6 2232.41 13179.4 2238.83 13176.2 2245.28C13172.2 2253.26 13168.2 2261.18 13164 2269.05C13160.6 2275.41 13157.4 2281.83 13154.2 2288.28C13150.2 2296.26 13146.2 2304.18 13142 2312.05C13138.1 2319.43 13134.4 2326.9 13130.7 2334.37C13127.2 2341.36 13123.6 2348.29 13119.9 2355.19C13116.8 2361.18 13113.7 2367.21 13110.7 2373.28C13107.3 2380.11 13103.9 2386.91 13100.3 2393.65C13096.5 2400.8 13092.8 2408.02 13089.2 2415.28C13085.2 2423.26 13081.2 2431.18 13077 2439.05C13073.6 2445.41 13070.4 2451.83 13067.2 2458.28C13063.2 2466.26 13059.2 2474.18 13055 2482.05C13051.6 2488.41 13048.4 2494.83 13045.2 2501.28C13041.2 2509.26 13037.2 2517.18 13033 2525.05C13029.6 2531.41 13026.4 2537.83 13023.2 2544.28C13019.2 2552.26 13015.2 2560.18 13011 2568.05C13007.6 2574.41 13004.4 2580.83 13001.2 2587.28C12997.2 2595.26 12993.2 2603.18 12989 2611.05C12985.6 2617.41 12982.4 2623.83 12979.2 2630.28C12975.2 2638.26 12971.2 2646.18 12967 2654.05C12963.6 2660.41 12960.4 2666.83 12957.2 2673.28C12953.2 2681.26 12949.2 2689.18 12945 2697.05C12941.6 2703.41 12938.4 2709.83 12935.2 2716.28C12931.2 2724.26 12927.2 2732.18 12923 2740.05C12919.6 2746.41 12916.4 2752.83 12913.2 2759.28C12909.2 2767.26 12905.2 2775.18 12901 2783.05C12897.6 2789.41 12894.4 2795.83 12891.2 2802.28C12887.2 2810.26 12883.2 2818.18 12879 2826.05C12875.6 2832.41 12872.4 2838.83 12869.2 2845.28C12865.2 2853.26 12861.2 2861.18 12857 2869.05C12853.6 2875.41 12850.4 2881.83 12847.2 2888.28C12843.2 2896.26 12839.2 2904.18 12835 2912.05C12831.6 2918.41 12828.4 2924.83 12825.2 2931.28C12821.2 2939.26 12817.2 2947.18 12813 2955.05C12809.6 2961.41 12806.4 2967.83 12803.2 2974.28C12799.2 2982.26 12795.2 2990.18 12791 2998.05C12787.6 3004.41 12784.4 3010.83 12781.2 3017.28C12777.2 3025.26 12773.2 3033.18 12769 3041.05C12765.6 3047.41 12762.4 3053.83 12759.2 3060.28C12755.2 3068.26 12751.2 3076.18 12747 3084.05C12743.1 3091.43 12739.4 3098.9 12735.7 3106.37C12732.2 3113.36 12728.6 3120.29 12724.9 3127.19C12721.8 3133.18 12718.7 3139.21 12715.7 3145.28C12712.3 3152.11 12708.9 3158.91 12705.3 3165.65C12701.5 3172.8 12697.8 3180.02 12694.2 3187.28C12690.2 3195.26 12686.2 3203.18 12682 3211.05C12678.6 3217.41 12675.4 3223.83 12672.2 3230.28C12668.2 3238.26 12664.2 3246.18 12660 3254.05C12656.6 3260.41 12653.4 3266.83 12650.2 3273.28C12646.2 3281.26 12642.2 3289.18 12638 3297.05C12634.6 3303.41 12631.4 3309.83 12628.2 3316.28C12624.2 3324.26 12620.2 3332.18 12616 3340.05C12612.6 3346.41 12609.4 3352.83 12606.2 3359.28C12602.2 3367.26 12598.2 3375.18 12594 3383.05C12590.6 3389.41 12587.4 3395.83 12584.2 3402.28C12580.2 3410.26 12576.2 3418.18 12572 3426.05C12568.6 3432.41 12565.4 3438.83 12562.2 3445.28C12558.2 3453.26 12554.2 3461.18 12550 3469.05C12546.6 3475.41 12543.4 3481.83 12540.2 3488.28C12536.2 3496.26 12532.2 3504.18 12528 3512.05C12524.6 3518.41 12521.4 3524.83 12518.2 3531.28C12514.2 3539.26 12510.2 3547.18 12506 3555.05C12502.6 3561.41 12499.4 3567.83 12496.2 3574.28C12492.2 3582.26 12488.2 3590.18 12484 3598.05C12480.1 3605.42 12476.4 3612.89 12472.7 3620.36C12469.2 3627.4 12465.6 3634.39 12461.9 3641.33C12457.8 3648.91 12454.1 3656.58 12450.2 3664.28C12229.8 3664.28 12009.3 3664.28 11782.2 3664.28C11761.7 3624.46 11761.7 3624.46 11753.8 3608.9C11751.3 3603.95 11748.7 3599 11746.2 3594.06C11745.5 3592.57 11745.5 3592.57 11744.7 3591.04C11739.7 3581.24 11734.7 3571.45 11729.6 3561.65C11722.3 3547.36 11715 3533.07 11707.7 3518.78C11700.4 3504.44 11693.1 3490.1 11685.7 3475.78C11677.9 3460.5 11670.1 3445.21 11662.2 3429.92C11655.4 3416.54 11648.6 3403.15 11641.7 3389.78C11633.9 3374.5 11626.1 3359.21 11618.2 3343.92C11611.4 3330.54 11604.6 3317.15 11597.7 3303.78C11589.9 3288.5 11582.1 3273.21 11574.2 3257.92C11567.4 3244.54 11560.6 3231.15 11553.7 3217.78C11545.9 3202.5 11538.1 3187.21 11530.2 3171.92C11523 3157.7 11515.7 3143.47 11508.4 3129.26C11501.5 3115.73 11494.6 3102.19 11487.6 3088.65C11480.5 3074.69 11473.4 3060.73 11466.2 3046.78C11458.6 3031.87 11450.9 3016.96 11443.3 3002.04C11436.4 2988.61 11429.6 2975.19 11422.7 2961.78C11414.9 2946.5 11407.1 2931.21 11399.2 2915.92C11392.4 2902.54 11385.6 2889.15 11378.7 2875.78C11370.9 2860.5 11363.1 2845.21 11355.2 2829.92C11348.4 2816.54 11341.6 2803.15 11334.7 2789.78C11326.9 2774.5 11319.1 2759.21 11311.2 2743.92C11304.4 2730.54 11297.6 2717.15 11290.7 2703.78C11282.9 2688.5 11275.1 2673.21 11267.2 2657.92C11260.4 2644.54 11253.6 2631.15 11246.7 2617.78C11238.9 2602.5 11231.1 2587.21 11223.2 2571.92C11216.4 2558.54 11209.6 2545.15 11202.7 2531.78C11194.9 2516.5 11187.1 2501.21 11179.2 2485.92C11172.4 2472.54 11165.6 2459.15 11158.7 2445.78C11150.9 2430.5 11143.1 2415.21 11135.2 2399.92C11128 2385.7 11120.7 2371.47 11113.4 2357.26C11106.5 2343.73 11099.6 2330.19 11092.6 2316.65C11085.5 2302.69 11078.4 2288.73 11071.2 2274.78C11063.6 2259.87 11055.9 2244.96 11048.3 2230.04C11041.4 2216.61 11034.6 2203.19 11027.7 2189.78C11019.9 2174.5 11012.1 2159.21 11004.2 2143.92C10997.4 2130.54 10990.6 2117.15 10983.7 2103.78C10975.9 2088.5 10968.1 2073.21 10960.2 2057.92C10953.4 2044.54 10946.6 2031.15 10939.7 2017.78C10931.9 2002.5 10924.1 1987.21 10916.2 1971.92C10909.4 1958.54 10902.6 1945.15 10895.7 1931.78C10887.9 1916.5 10880.1 1901.21 10872.2 1885.92C10865 1871.7 10857.7 1857.48 10850.4 1843.26C10845.4 1833.49 10840.4 1823.72 10835.4 1813.94C10834.7 1812.51 10834.7 1812.51 10833.9 1811.05C10831.5 1806.28 10829.1 1801.52 10826.6 1796.75C10822 1787.73 10817.4 1778.72 10812.8 1769.73C10811.9 1768.08 10811.1 1766.43 10810.2 1764.78C10808.6 1761.72 10807 1758.66 10805.4 1755.61C10804.7 1754.25 10804 1752.9 10803.3 1751.55C10802.7 1750.38 10802.1 1749.21 10801.5 1748C10800.2 1745.28 10800.2 1745.28 10800.2 1743.28Z" fill="white"/>
<path d="M3177 1838.65C3178.39 1839.41 3178.39 1839.41 3179.81 1840.17C3180.81 1840.72 3181.8 1841.27 3182.83 1841.84C3183.89 1842.41 3184.94 1842.99 3186.02 1843.58C3198.59 1850.51 3210.93 1857.83 3223.21 1865.28C3224.22 1865.89 3225.24 1866.51 3226.29 1867.14C3247.2 1879.89 3267.68 1893.52 3287.45 1907.99C3288.76 1908.95 3290.06 1909.9 3291.37 1910.85C3301.66 1918.32 3311.76 1925.97 3321.63 1933.99C3323.85 1935.79 3326.09 1937.56 3328.33 1939.34C3332.73 1942.86 3337.03 1946.49 3341.32 1950.14C3344.74 1953.05 3348.21 1955.9 3351.71 1958.71C3356.46 1962.58 3360.97 1966.66 3365.44 1970.85C3368.3 1973.53 3371.2 1976.16 3374.16 1978.74C3387.09 1990.01 3399.2 2002.16 3411.33 2014.28C3412.36 2015.3 3412.36 2015.3 3413.4 2016.34C3426.56 2029.45 3426.56 2029.45 3431.74 2035.57C3434.41 2038.68 3437.26 2041.62 3440.08 2044.59C3445 2049.82 3449.66 2055.13 3454.14 2060.74C3456.21 2063.28 3458.37 2065.68 3460.58 2068.09C3464.56 2072.46 3468.22 2077.02 3471.84 2081.69C3474.84 2085.55 3477.9 2089.36 3481 2093.15C3487.47 2101.02 3493.68 2109.05 3499.72 2117.26C3500.69 2118.57 3501.66 2119.89 3502.64 2121.2C3555.2 2191.74 3597.38 2270.85 3686.46 2609.96C3686.58 2611.36 3686.58 2611.36 3686.71 2612.79C3694.8 2704.47 3689.06 2797.31 3665.21 2915.28C3665.04 2916.01 3664.87 2916.75 3664.69 2917.51C3648.28 2988.37 3623.36 3057.08 3591.21 3122.28C3590.84 3123.03 3590.47 3123.78 3590.09 3124.56C3588.22 3128.38 3586.32 3132.18 3584.39 3135.97C3583.5 3137.7 3582.62 3139.44 3581.74 3141.18C3573.94 3156.55 3565.77 3171.63 3556.91 3186.42C3555.28 3189.15 3553.67 3191.88 3552.06 3194.62C3544.78 3206.88 3536.99 3218.79 3529.08 3230.65C3528.58 3231.4 3528.08 3232.15 3527.57 3232.92C3517.8 3247.57 3507.84 3262.08 3497.08 3276.03C3496.4 3276.91 3495.73 3277.79 3495.03 3278.71C3493.69 3280.44 3492.36 3282.18 3491.02 3283.92C3489.43 3285.98 3487.86 3288.04 3486.28 3290.11C3478.07 3300.88 3469.44 3311.26 3460.66 3321.57C3459.68 3322.72 3458.7 3323.87 3457.73 3325.02C3451.56 3332.3 3445.29 3339.46 3438.8 3346.46C3436.35 3349.13 3433.93 3351.82 3431.52 3354.53C3428.24 3358.18 3424.86 3361.69 3421.33 3365.1C3419.48 3367 3417.75 3368.94 3416.02 3370.95C3411.97 3375.62 3407.65 3379.98 3403.27 3384.34C3402.51 3385.1 3401.75 3385.87 3400.97 3386.65C3396.76 3390.85 3392.46 3394.87 3387.95 3398.75C3385.77 3400.66 3383.73 3402.69 3381.71 3404.78C3378.38 3408.15 3374.96 3411.32 3371.36 3414.4C3368.83 3416.61 3366.36 3418.88 3363.9 3421.15C3359.43 3425.22 3354.85 3429.08 3350.15 3432.87C3346.84 3435.57 3343.62 3438.36 3340.4 3441.15C3334.12 3446.56 3327.68 3451.72 3321.13 3456.78C3319.07 3458.39 3317.01 3460 3314.96 3461.62C3304.57 3469.79 3293.99 3477.63 3283.21 3485.28C3282.43 3485.83 3281.65 3486.39 3280.84 3486.96C3206.77 3539.71 3125.05 3581.82 2784.42 3663.13C2782.46 3663.26 2780.51 3663.4 2778.55 3663.55C2761.77 3664.68 2744.92 3664.41 2728.11 3664.4C2723.3 3664.39 2718.49 3664.4 2713.68 3664.4C2705.26 3664.4 2696.84 3664.4 2688.42 3664.4C2675.74 3664.39 2663.05 3664.39 2650.37 3664.39C2629.11 3664.39 2607.85 3664.39 2586.59 3664.38C2557.84 3664.37 2529.09 3664.37 2500.35 3664.37C2431.24 3664.37 2362.13 3664.35 2293.02 3664.34C2061.45 3664.31 2061.45 3664.31 1825.21 3664.28C1825.21 3285.44 1825.21 2906.6 1825.21 2516.28C2035.75 2516.28 2246.29 2516.28 2463.21 2516.28C2463.21 2740.35 2463.21 2964.42 2463.21 3195.28C2612.45 3199.42 2612.45 3199.42 2760.71 3190.03C2761.47 3189.92 2762.24 3189.81 2763.03 3189.7C2829.87 3180.38 2894.61 3157.47 2952.21 3122.28C2952.97 3121.81 2953.74 3121.35 2954.53 3120.87C2968.96 3112.12 2982.84 3102.58 2996.21 3092.28C2996.75 3091.86 2997.29 3091.44 2997.85 3091.01C3010.64 3081.18 3022.81 3070.72 3034.62 3059.74C3036.35 3058.15 3038.08 3056.56 3039.82 3054.98C3045.38 3049.9 3050.82 3044.88 3055.65 3039.09C3057.36 3037.1 3059.2 3035.29 3061.08 3033.46C3064.95 3029.64 3068.34 3025.54 3071.74 3021.3C3073.91 3018.64 3076.14 3016.06 3078.4 3013.48C3119.12 2966.98 3148.77 2909.65 3168.21 2851.28C3168.57 2850.2 3168.93 2849.12 3169.3 2848.01C3181.98 2809.55 3189.04 2769.6 3192.21 2729.28C3192.28 2728.41 3192.35 2727.55 3192.42 2726.66C3199.43 2637.63 3178.78 2547.76 3139.21 2468.28C3138.73 2467.31 3138.25 2466.35 3137.76 2465.36C3126.75 2443.24 3113.89 2422.15 3099.21 2402.28C3098.43 2401.22 3097.66 2400.16 3096.86 2399.07C3094.67 2396.12 3092.45 2393.19 3090.21 2390.28C3089.8 2389.74 3089.39 2389.2 3088.96 2388.65C3081.73 2379.21 3074.11 2370.16 3066.21 2361.28C3065.75 2360.76 3065.3 2360.25 3064.83 2359.72C3057.67 2351.66 3050.07 2344.03 3042.46 2336.4C3041.71 2335.65 3041.71 2335.65 3040.96 2334.89C3035.22 2329.13 3029.41 2323.54 3023.21 2318.28C3022.08 2317.29 3020.95 2316.31 3019.82 2315.32C2986.93 2286.79 2950.1 2263.7 2911.21 2244.28C2910.36 2243.85 2909.5 2243.42 2908.63 2242.97C2858.05 2217.56 2801.6 2202.92 2745.46 2196.96C2744.69 2196.88 2743.93 2196.8 2743.14 2196.72C2722.45 2194.55 2701.77 2194.13 2680.98 2194.12C2678.5 2194.11 2676.01 2194.11 2673.53 2194.1C2668.16 2194.09 2662.8 2194.08 2657.43 2194.08C2649.46 2194.07 2641.48 2194.06 2633.51 2194.04C2620.08 2194.02 2606.66 2194 2593.24 2193.99C2579.96 2193.97 2566.69 2193.95 2553.41 2193.93C2552.58 2193.93 2551.76 2193.93 2550.9 2193.92C2546.7 2193.92 2542.5 2193.91 2538.29 2193.9C2508.57 2193.86 2478.85 2193.81 2449.13 2193.77C2420.27 2193.73 2391.41 2193.69 2362.55 2193.65C2361.66 2193.65 2360.77 2193.65 2359.85 2193.64C2350.9 2193.63 2341.96 2193.62 2333.01 2193.6C2314.79 2193.58 2296.57 2193.55 2278.35 2193.52C2277.52 2193.52 2276.68 2193.52 2275.81 2193.52C2219.95 2193.43 2164.08 2193.35 2108.21 2193.28C2110.36 2191.13 2111.76 2190.52 2114.57 2189.44C2115.49 2189.08 2116.41 2188.73 2117.36 2188.36C2118.89 2187.78 2118.89 2187.78 2120.45 2187.18C2121.52 2186.77 2122.59 2186.35 2123.7 2185.93C2126.68 2184.78 2129.66 2183.64 2132.64 2182.5C2134.53 2181.77 2136.42 2181.05 2138.3 2180.32C2185.08 2162.34 2231.99 2144.68 2279.04 2127.44C2282.48 2126.17 2285.92 2124.91 2289.36 2123.65C2343.49 2103.79 2397.78 2084.4 2452.18 2065.34C2455.04 2064.33 2457.9 2063.33 2460.76 2062.33C2541.08 2034.17 2621.71 2006.9 2749.94 1964.82C2750.89 1964.52 2751.83 1964.22 2752.8 1963.91C2753.73 1963.62 2754.66 1963.32 2755.62 1963.02C2765.93 1959.74 2776.22 1956.36 2786.5 1952.98C2811.46 1944.77 2836.49 1936.81 2861.55 1928.94C2870.36 1926.17 2879.17 1923.39 2887.98 1920.6C2928.97 1907.6 2970.05 1894.94 3011.2 1882.45C3022.41 1879.04 3033.62 1875.62 3044.82 1872.18C3045.47 1871.98 3046.12 1871.78 3046.79 1871.57C3049.99 1870.59 3053.19 1869.6 3056.4 1868.62C3088.93 1858.61 3121.51 1848.8 3154.16 1839.19C3156.14 1838.6 3158.12 1837.98 3160.09 1837.33C3160.96 1837.04 3161.84 1836.76 3162.74 1836.46C3163.49 1836.21 3164.23 1835.96 3165.01 1835.69C3169.52 1834.84 3173.09 1836.54 3177 1838.65Z" fill="white"/>
<path d="M3867.21 2432.28C4413.03 2432.28 4958.85 2432.28 5521.21 2432.28C5521.21 2587.05 5521.21 2741.82 5521.21 2901.28C5185.93 2901.28 4850.65 2901.28 4505.21 2901.28C4505.21 2998.3 4505.21 3095.32 4505.21 3195.28C4840.49 3195.28 5175.77 3195.28 5521.21 3195.28C5521.21 3350.05 5521.21 3504.82 5521.21 3664.28C4975.39 3664.28 4429.57 3664.28 3867.21 3664.28C3867.21 3257.72 3867.21 2851.16 3867.21 2432.28Z" fill="white"/>
<path d="M5736.21 1716.28C5955.33 1716.28 6174.45 1716.28 6400.21 1716.28C6400.21 2204.35 6400.21 2692.42 6400.21 3195.28C6685 3195.28 6969.79 3195.28 7263.21 3195.28C7263.21 3350.05 7263.21 3504.82 7263.21 3664.28C6759.3 3664.28 6255.39 3664.28 5736.21 3664.28C5736.21 3021.44 5736.21 2378.6 5736.21 1716.28Z" fill="white"/>
<path d="M6673.21 1716.28C7434.19 1716.28 8195.17 1716.28 8979.21 1716.28C8979.21 1871.05 8979.21 2025.82 8979.21 2185.28C8218.23 2185.28 7457.25 2185.28 6673.21 2185.28C6673.21 2030.51 6673.21 1875.74 6673.21 1716.28Z" fill="white"/>
<path d="M7394.21 2397.28C7572.74 2397.28 7751.27 2397.28 7935.21 2397.28C7935.25 2442.64 7935.28 2488.01 7935.32 2534.75C7935.35 2561.74 7935.38 2588.73 7935.41 2615.72C7935.43 2631.55 7935.45 2647.38 7935.47 2663.21C7935.47 2665.12 7935.47 2667.04 7935.47 2668.95C7935.51 2699.45 7935.54 2729.94 7935.56 2760.44C7935.58 2791.8 7935.61 2823.15 7935.65 2854.51C7935.66 2858.94 7935.66 2863.38 7935.67 2867.81C7935.67 2868.68 7935.67 2869.55 7935.67 2870.45C7935.69 2884.47 7935.7 2898.49 7935.71 2912.51C7935.71 2926.62 7935.73 2940.73 7935.75 2954.84C7935.77 2963.21 7935.78 2971.58 7935.77 2979.95C7935.77 2985.56 7935.78 2991.17 7935.79 2996.78C7935.8 2999.96 7935.81 3003.15 7935.8 3006.33C7935.72 3049.08 7945.52 3090.02 7972.21 3124.28C7972.88 3125.17 7973.55 3126.06 7974.24 3126.98C8003.16 3164.12 8045.83 3186.98 8092.21 3193.28C8099.08 3194.12 8105.86 3194.42 8112.78 3194.41C8113.8 3194.42 8114.82 3194.42 8115.87 3194.42C8119.29 3194.43 8122.7 3194.43 8126.11 3194.43C8128.59 3194.44 8131.06 3194.44 8133.54 3194.45C8138.92 3194.46 8144.29 3194.47 8149.67 3194.47C8157.67 3194.48 8165.66 3194.49 8173.66 3194.51C8187.11 3194.53 8200.56 3194.55 8214.01 3194.57C8227.33 3194.58 8240.64 3194.6 8253.96 3194.62C8255.2 3194.62 8255.2 3194.62 8256.47 3194.63C8260.68 3194.63 8264.88 3194.64 8269.09 3194.65C8298.88 3194.69 8328.67 3194.74 8358.46 3194.78C8387.39 3194.82 8416.33 3194.86 8445.26 3194.9C8447.08 3194.91 8448.9 3194.91 8450.72 3194.91C8465.51 3194.93 8480.3 3194.96 8495.09 3194.98C8563.46 3195.09 8631.84 3195.18 8700.21 3195.28C8700.21 3350.05 8700.21 3504.82 8700.21 3664.28C8514.95 3664.4 8514.95 3664.4 8443.84 3664.42C8425.25 3664.43 8406.66 3664.43 8388.07 3664.44C8385.82 3664.44 8383.57 3664.44 8381.32 3664.44C8345.53 3664.45 8309.75 3664.48 8273.96 3664.5C8237.15 3664.53 8200.34 3664.55 8163.53 3664.56C8158.32 3664.56 8153.11 3664.56 8147.9 3664.56C8146.87 3664.56 8145.85 3664.56 8144.79 3664.56C8128.35 3664.56 8111.91 3664.58 8095.46 3664.6C8078.89 3664.61 8062.32 3664.62 8045.76 3664.62C8035.94 3664.61 8026.12 3664.62 8016.3 3664.64C8009.71 3664.65 8003.12 3664.65 7996.53 3664.64C7992.79 3664.64 7989.06 3664.64 7985.32 3664.65C7958.32 3664.74 7931.37 3663.03 7904.65 3659.03C7903.95 3658.92 7903.25 3658.82 7902.53 3658.72C7843.26 3649.95 7786.24 3632.1 7732.21 3606.28C7731.11 3605.75 7730.01 3605.23 7728.88 3604.69C7711.04 3596.12 7694.04 3586.67 7677.21 3576.28C7676.19 3575.65 7675.18 3575.03 7674.13 3574.38C7663.1 3567.56 7652.34 3560.49 7642.01 3552.64C7640.12 3551.21 7638.21 3549.8 7636.3 3548.39C7614.71 3532.42 7593.79 3515.18 7574.97 3496C7573.26 3494.33 7571.49 3492.8 7569.65 3491.28C7566.48 3488.62 7563.89 3485.69 7561.22 3482.55C7558.82 3479.84 7556.28 3477.31 7553.71 3474.78C7549.32 3470.44 7545.2 3465.97 7541.21 3461.28C7540.34 3460.28 7539.47 3459.29 7538.57 3458.27C7531.35 3450 7524.61 3441.43 7518.02 3432.65C7516.68 3430.9 7515.33 3429.16 7513.97 3427.43C7507.78 3419.54 7502.08 3411.38 7496.55 3403.02C7495.15 3400.91 7493.74 3398.8 7492.33 3396.69C7441.7 3320.68 7408.45 3232.03 7395.21 3113.28C7395.12 3112.3 7395.04 3111.32 7394.96 3110.31C7393.98 3097.17 7394.07 3084.03 7394.09 3070.86C7394.09 3067.27 7394.09 3063.67 7394.08 3060.07C7394.08 3053.78 7394.08 3047.5 7394.09 3041.21C7394.09 3031.85 7394.1 3022.5 7394.09 3013.15C7394.09 2997.42 7394.1 2981.68 7394.1 2965.95C7394.11 2950.37 7394.11 2934.8 7394.11 2919.23C7394.11 2918.26 7394.11 2917.29 7394.11 2916.29C7394.11 2911.37 7394.11 2906.45 7394.11 2901.52C7394.12 2866.68 7394.12 2831.84 7394.13 2797C7394.14 2763.15 7394.15 2729.31 7394.15 2695.47C7394.15 2693.34 7394.15 2691.21 7394.15 2689.08C7394.16 2671.78 7394.16 2654.48 7394.16 2637.18C7394.17 2557.21 7394.19 2477.24 7394.21 2397.28Z" fill="white"/>
<path d="M3836.21 1716.28C4392.26 1716.28 4948.31 1716.28 5521.21 1716.28C5521.21 1871.05 5521.21 2025.82 5521.21 2185.28C4965.16 2185.28 4409.11 2185.28 3836.21 2185.28C3836.21 2030.51 3836.21 1875.74 3836.21 1716.28Z" fill="white"/>
<path d="M9979.21 3126.28C10079.8 3126.21 10180.4 3126.19 10703.5 3126.71C10706.1 3126.71 10708.8 3126.72 10711.5 3126.72C10796.3 3126.85 10881.1 3126.99 11362.2 3128.28C11360.8 3131.31 11359.3 3134.35 11357.9 3137.39C11357.5 3138.25 11357.1 3139.1 11356.7 3139.98C11353.7 3146.28 11350.6 3152.52 11347.4 3158.71C11346.9 3159.68 11346.4 3160.65 11345.9 3161.65C11344.4 3164.67 11342.8 3167.69 11341.3 3170.71C11339.2 3174.71 11337.2 3178.71 11335.1 3182.71C11334.4 3184.17 11334.4 3184.17 11333.6 3185.65C11329.9 3192.94 11326.2 3200.25 11322.6 3207.58C11320 3212.82 11317.3 3217.99 11314.5 3223.15C11310.1 3231.46 11305.9 3239.86 11301.7 3248.28C11297.2 3257.27 11292.7 3266.22 11288 3275.08C11284.3 3282.08 11280.7 3289.18 11277.2 3296.28C11273.3 3304.11 11269.4 3311.93 11265.3 3319.65C11260.9 3327.79 11256.8 3336.02 11252.7 3344.28C11248.2 3353.27 11243.7 3362.22 11239 3371.08C11235.3 3378.08 11231.7 3385.18 11228.2 3392.28C11224.3 3400.11 11220.4 3407.93 11216.3 3415.65C11211.9 3423.79 11207.8 3432.02 11203.7 3440.28C11199.3 3449.22 11194.8 3458.12 11190.1 3466.94C11185.8 3474.97 11181.8 3483.12 11177.7 3491.26C11173.6 3499.59 11169.4 3507.87 11165 3516.08C11161.3 3523.08 11157.7 3530.18 11154.2 3537.28C11150.3 3545.11 11146.4 3552.93 11142.3 3560.65C11137.9 3568.79 11133.8 3577.02 11129.7 3585.28C11125.3 3594.22 11120.8 3603.12 11116.1 3611.94C11111.8 3619.96 11107.8 3628.11 11103.7 3636.24C11099 3645.69 11094.2 3655.08 11089.3 3664.39C11087.8 3667.08 11086.4 3669.79 11085.1 3672.52C11084.7 3673.23 11084.4 3673.93 11084 3674.66C11083.7 3675.19 11083.5 3675.73 11083.2 3676.28C11043.2 3675.88 11003.1 3675.49 10963 3675.1C10962.3 3675.09 10961.5 3675.08 10960.7 3675.07C10876.6 3674.25 10792.5 3673.43 10708.4 3672.6C10706.5 3672.58 10704.7 3672.56 10702.8 3672.54C10663.5 3672.16 10624.3 3671.77 10585 3671.39C10565.3 3671.19 10545.6 3671 10525.8 3670.81C10522.9 3670.78 10519.9 3670.75 10516.9 3670.72C10471.1 3670.27 10425.4 3669.82 10379.6 3669.37C10378.2 3669.36 10378.2 3669.36 10376.7 3669.34C10360.8 3669.19 10345 3669.03 10329.2 3668.88C10283.5 3668.43 10237.8 3667.98 10192.2 3667.53C10190.8 3667.52 10190.8 3667.52 10189.3 3667.5C10168.7 3667.3 10148 3667.1 10127.3 3666.89C10119 3666.81 10110.7 3666.73 10102.3 3666.65C10101.4 3666.64 10100.5 3666.63 10099.6 3666.62C10070.4 3666.33 10041.1 3666.05 10011.9 3665.76C9982.41 3665.47 9952.91 3665.18 9923.41 3664.89C9919.31 3664.85 9915.21 3664.81 9911.11 3664.77C9910.31 3664.76 9909.51 3664.76 9908.68 3664.75C9896.08 3664.62 9883.48 3664.5 9870.89 3664.38C9858.43 3664.26 9845.97 3664.13 9833.5 3664.01C9826.87 3663.94 9820.23 3663.88 9813.6 3663.82C9777.8 3663.47 9742 3662.94 9706.21 3662.28C9707.32 3658.88 9708.42 3655.6 9710.02 3652.41C9710.37 3651.71 9710.72 3651.01 9711.08 3650.29C9711.45 3649.55 9711.82 3648.81 9712.21 3648.05C9712.6 3647.26 9712.99 3646.48 9713.4 3645.67C9714.66 3643.14 9715.93 3640.61 9717.21 3638.09C9718.08 3636.34 9718.96 3634.6 9719.84 3632.85C9724.35 3623.88 9728.9 3614.93 9733.63 3606.07C9737.61 3598.6 9741.36 3591.01 9745.13 3583.43C9748.72 3576.21 9752.35 3569.02 9756.15 3561.9C9760.48 3553.77 9764.6 3545.53 9768.71 3537.28C9773.18 3528.29 9777.71 3519.34 9782.43 3510.47C9786.47 3502.86 9790.29 3495.15 9794.12 3487.43C9798.11 3479.42 9802.17 3471.47 9806.38 3463.58C9810.11 3456.54 9813.66 3449.41 9817.21 3442.28C9821.1 3434.44 9825.03 3426.62 9829.15 3418.9C9833.48 3410.77 9837.6 3402.53 9841.71 3394.28C9846.18 3385.29 9850.71 3376.34 9855.43 3367.47C9859.47 3359.86 9863.29 3352.15 9867.12 3344.43C9871.11 3336.42 9875.17 3328.47 9879.38 3320.58C9883.11 3313.54 9886.66 3306.41 9890.21 3299.28C9894.1 3291.44 9898.03 3283.62 9902.15 3275.9C9906.48 3267.77 9910.6 3259.53 9914.71 3251.28C9919.18 3242.29 9923.71 3233.34 9928.43 3224.47C9932.47 3216.86 9936.29 3209.15 9940.12 3201.43C9944.11 3193.43 9948.17 3185.47 9952.38 3177.58C9956.74 3169.36 9960.85 3161.02 9964.95 3152.67C9968.11 3146.29 9971.42 3140.03 9974.93 3133.84C9975.35 3133.11 9975.76 3132.37 9976.18 3131.62C9977.19 3129.84 9978.2 3128.06 9979.21 3126.28Z" fill="white"/>
<path d="M9488.21 2432.28C9686.87 2432.28 9885.53 2432.28 10090.2 2432.28C10088.9 2436.14 10087.8 2439.32 10086 2442.87C10085.6 2443.73 10085.2 2444.6 10084.7 2445.49C10084.2 2446.43 10083.8 2447.36 10083.3 2448.32C10082.8 2449.32 10082.3 2450.32 10081.8 2451.35C10080.1 2454.65 10078.5 2457.94 10076.8 2461.24C10075.6 2463.55 10074.5 2465.87 10073.3 2468.18C10070.6 2473.66 10067.8 2479.14 10065.1 2484.62C10059.9 2494.94 10054.7 2505.27 10049.5 2515.6C10047.9 2518.95 10046.2 2522.31 10044.5 2525.66C10043.4 2527.78 10042.4 2529.91 10041.3 2532.03C10040.8 2532.93 10040.4 2533.83 10039.9 2534.75C10036.6 2541.47 10033.3 2548.25 10030.1 2555.04C10024.3 2567.22 10018.3 2579.3 10012.2 2591.37C10011.1 2593.68 10009.9 2595.99 10008.7 2598.3C10006.3 2603.23 10003.8 2608.16 10001.3 2613.08C9997.76 2620.23 9994.19 2627.38 9990.61 2634.52C9984.79 2646.16 9978.97 2657.8 9973.14 2669.43C9972.62 2670.47 9972.62 2670.47 9972.09 2671.53C9969.28 2677.15 9966.46 2682.77 9963.65 2688.39C9961.19 2693.3 9958.74 2698.21 9956.28 2703.12C9955.93 2703.81 9955.58 2704.5 9955.23 2705.22C9949.42 2716.82 9943.61 2728.42 9937.81 2740.02C9934.25 2747.13 9930.69 2754.25 9927.12 2761.37C9924.39 2766.83 9921.65 2772.3 9918.91 2777.77C9917.8 2779.99 9916.69 2782.21 9915.58 2784.43C9910.2 2795.17 9904.87 2805.93 9899.71 2816.78C9894.03 2828.72 9888.14 2840.55 9882.21 2852.37C9881.05 2854.68 9879.9 2856.99 9878.74 2859.3C9876.28 2864.23 9873.81 2869.16 9871.34 2874.08C9867.76 2881.23 9864.19 2888.38 9860.61 2895.52C9854.79 2907.16 9848.97 2918.8 9843.14 2930.43C9842.79 2931.12 9842.45 2931.82 9842.09 2932.53C9839.28 2938.15 9836.46 2943.77 9833.65 2949.39C9831.19 2954.3 9828.74 2959.21 9826.28 2964.12C9825.93 2964.81 9825.58 2965.5 9825.23 2966.22C9819.42 2977.82 9813.61 2989.42 9807.81 3001.02C9804.25 3008.13 9800.69 3015.25 9797.12 3022.37C9794.39 3027.83 9791.65 3033.3 9788.91 3038.77C9787.8 3040.99 9786.69 3043.21 9785.58 3045.43C9779.72 3057.12 9773.95 3068.85 9768.34 3080.66C9763.13 3091.57 9757.72 3102.38 9752.3 3113.19C9751.16 3115.48 9750.01 3117.77 9748.86 3120.06C9746.42 3124.94 9743.97 3129.83 9741.53 3134.71C9737.98 3141.8 9734.43 3148.88 9730.89 3155.97C9725.12 3167.51 9719.34 3179.04 9713.57 3190.58C9713.22 3191.26 9712.88 3191.95 9712.53 3192.66C9709.74 3198.23 9706.95 3203.8 9704.16 3209.37C9701.72 3214.24 9699.29 3219.11 9696.85 3223.97C9696.51 3224.66 9696.16 3225.35 9695.81 3226.05C9690.05 3237.55 9684.3 3249.05 9678.54 3260.56C9675.01 3267.61 9671.48 3274.67 9667.95 3281.72C9665.23 3287.14 9662.52 3292.56 9659.81 3297.98C9658.71 3300.18 9657.6 3302.38 9656.5 3304.58C9651.15 3315.27 9645.85 3325.97 9640.71 3336.76C9635.03 3348.71 9629.14 3360.54 9623.21 3372.37C9622.05 3374.68 9620.9 3376.99 9619.74 3379.3C9617.28 3384.23 9614.81 3389.16 9612.34 3394.08C9608.76 3401.23 9605.19 3408.38 9601.61 3415.52C9595.79 3427.16 9589.97 3438.8 9584.14 3450.43C9583.62 3451.47 9583.62 3451.47 9583.09 3452.53C9580.28 3458.15 9577.46 3463.77 9574.65 3469.39C9572.19 3474.3 9569.74 3479.21 9567.28 3484.12C9566.93 3484.81 9566.58 3485.5 9566.23 3486.22C9560.42 3497.82 9554.61 3509.42 9548.81 3521.02C9545.25 3528.13 9541.69 3535.25 9538.12 3542.37C9535.39 3547.83 9532.65 3553.3 9529.91 3558.77C9528.8 3560.99 9527.69 3563.21 9526.58 3565.43C9520.11 3578.34 9513.75 3591.31 9507.55 3604.35C9504.53 3610.71 9501.41 3617.01 9498.26 3623.3C9497.68 3624.46 9497.1 3625.63 9496.5 3626.83C9495.3 3629.23 9494.1 3631.63 9492.9 3634.03C9491.36 3637.1 9489.82 3640.18 9488.28 3643.26C9486.8 3646.23 9485.31 3649.2 9483.83 3652.17C9483.27 3653.28 9482.72 3654.38 9482.16 3655.52C9481.65 3656.53 9481.15 3657.53 9480.63 3658.57C9480.18 3659.46 9479.74 3660.35 9479.28 3661.26C9478.21 3663.28 9478.21 3663.28 9477.21 3664.28C9475.85 3664.37 9474.5 3664.4 9473.14 3664.4C9472.26 3664.4 9471.37 3664.4 9470.46 3664.41C9469.48 3664.4 9468.49 3664.4 9467.48 3664.4C9465.92 3664.4 9465.92 3664.4 9464.33 3664.4C9460.8 3664.41 9457.27 3664.4 9453.74 3664.4C9451.2 3664.4 9448.66 3664.4 9446.13 3664.4C9440.59 3664.4 9435.04 3664.4 9429.5 3664.4C9421.26 3664.39 9413.02 3664.39 9404.78 3664.39C9390.92 3664.39 9377.07 3664.39 9363.21 3664.38C9349.48 3664.38 9335.75 3664.37 9322.02 3664.37C9320.74 3664.37 9320.74 3664.37 9319.44 3664.37C9315.11 3664.37 9310.78 3664.37 9306.45 3664.37C9275.76 3664.37 9245.07 3664.36 9214.38 3664.35C9184.55 3664.34 9154.73 3664.34 9124.91 3664.33C9123.53 3664.33 9123.53 3664.33 9122.12 3664.33C9112.9 3664.33 9103.67 3664.33 9094.45 3664.33C9075.65 3664.32 9056.86 3664.32 9038.06 3664.32C9037.2 3664.32 9036.33 3664.32 9035.44 3664.32C8977.7 3664.31 8919.95 3664.29 8862.21 3664.28C8863.64 3661.25 8865.07 3658.23 8866.5 3655.21C8866.9 3654.36 8867.3 3653.51 8867.71 3652.63C8870.94 3645.81 8874.26 3639.03 8877.65 3632.28C8878.14 3631.28 8878.64 3630.29 8879.15 3629.26C8882.35 3622.87 8885.65 3616.53 8888.99 3610.21C8894.23 3600.31 8899.23 3590.31 8904.21 3580.28C8909.51 3569.59 8914.87 3558.96 8920.46 3548.42C8925.2 3539.45 8929.7 3530.36 8934.21 3521.28C8939.51 3510.59 8944.87 3499.96 8950.46 3489.42C8955.2 3480.45 8959.7 3471.36 8964.21 3462.28C8969.51 3451.59 8974.87 3440.96 8980.46 3430.42C8985.2 3421.45 8989.7 3412.36 8994.21 3403.28C8999.51 3392.59 9004.87 3381.96 9010.46 3371.42C9015.2 3362.45 9019.7 3353.36 9024.21 3344.28C9029.51 3333.59 9034.87 3322.96 9040.46 3312.42C9045.2 3303.45 9049.7 3294.36 9054.21 3285.28C9059.51 3274.59 9064.87 3263.96 9070.46 3253.42C9075.2 3244.45 9079.7 3235.36 9084.21 3226.28C9089.51 3215.59 9094.87 3204.96 9100.46 3194.42C9105.2 3185.45 9109.7 3176.36 9114.21 3167.28C9119.51 3156.59 9124.87 3145.96 9130.46 3135.42C9135.2 3126.45 9139.7 3117.36 9144.21 3108.28C9149.51 3097.59 9154.87 3086.96 9160.46 3076.42C9165.2 3067.45 9169.7 3058.36 9174.21 3049.28C9179.51 3038.59 9184.87 3027.96 9190.46 3017.42C9195.2 3008.45 9199.7 2999.36 9204.21 2990.28C9209.51 2979.59 9214.87 2968.96 9220.46 2958.42C9225.2 2949.45 9229.7 2940.36 9234.21 2931.28C9239.51 2920.59 9244.87 2909.96 9250.46 2899.42C9255.2 2890.45 9259.7 2881.36 9264.21 2872.28C9269.51 2861.59 9274.87 2850.96 9280.46 2840.42C9285.2 2831.45 9289.7 2822.36 9294.21 2813.28C9299.51 2802.59 9304.87 2791.96 9310.46 2781.42C9315.2 2772.45 9319.7 2763.36 9324.21 2754.28C9329.51 2743.59 9334.87 2732.96 9340.46 2722.42C9345.2 2713.45 9349.7 2704.36 9354.21 2695.28C9359.51 2684.59 9364.87 2673.96 9370.46 2663.42C9375.2 2654.45 9379.7 2645.36 9384.21 2636.28C9389.51 2625.59 9394.87 2614.96 9400.46 2604.42C9405.2 2595.45 9409.7 2586.36 9414.21 2577.28C9419.51 2566.59 9424.87 2555.96 9430.46 2545.42C9435.2 2536.45 9439.7 2527.36 9444.21 2518.28C9449.1 2508.41 9454.02 2498.56 9459.18 2488.82C9464.49 2478.81 9469.55 2468.68 9474.58 2458.53C9476.32 2455.03 9478.05 2451.54 9479.79 2448.04C9480.37 2446.87 9480.37 2446.87 9480.96 2445.68C9481.33 2444.94 9481.7 2444.2 9482.08 2443.44C9482.39 2442.8 9482.71 2442.17 9483.04 2441.51C9484.68 2438.39 9486.46 2435.34 9488.21 2432.28Z" fill="white"/>
<path d="M10443.2 1742.55C10451.4 1742.31 10459.6 1742.13 10467.8 1741.97C10473.3 1741.85 10478.8 1741.69 10484.3 1741.41C10514.7 1739.9 10514.7 1739.9 10522.3 1745.57C10527.3 1751.18 10530.4 1757.34 10533 1764.35C10534.7 1768.58 10537.2 1772.17 10539.8 1775.9C10540.7 1777.25 10541.5 1778.61 10542.4 1779.97C10542.9 1780.66 10543.3 1781.35 10543.8 1782.06C10546.5 1786.28 10549.2 1790.53 10551.9 1794.78C10559 1805.9 10566.1 1817 10573.2 1828.1C10576.5 1833.33 10579.9 1838.55 10583.2 1843.78C10584.5 1845.86 10585.9 1847.94 10587.2 1850.03C10589.9 1854.19 10592.5 1858.36 10595.2 1862.53C10595.9 1863.56 10596.5 1864.59 10597.2 1865.65C10598.5 1867.73 10599.9 1869.81 10601.2 1871.89C10604.6 1877.14 10607.9 1882.39 10611.3 1887.63C10618.2 1898.4 10625.1 1909.18 10631.9 1919.97C10638.3 1930.03 10644.7 1940.07 10651.2 1950.1C10654.5 1955.33 10657.9 1960.55 10661.2 1965.78C10662.5 1967.86 10663.9 1969.94 10665.2 1972.03C10673.2 1984.53 10681.2 1997.03 10689.2 2009.53C10689.9 2010.56 10690.5 2011.59 10691.2 2012.65C10692.5 2014.73 10693.9 2016.81 10695.2 2018.89C10698.6 2024.14 10701.9 2029.39 10705.3 2034.63C10712.2 2045.4 10719.1 2056.18 10725.9 2066.97C10732.3 2077.03 10738.7 2087.07 10745.2 2097.1C10748.5 2102.33 10751.9 2107.55 10755.2 2112.78C10756.5 2114.86 10757.9 2116.94 10759.2 2119.03C10779.2 2150.28 10779.2 2150.28 10799.2 2181.53C10799.9 2182.56 10800.5 2183.59 10801.2 2184.65C10802.5 2186.73 10803.9 2188.81 10805.2 2190.89C10808.6 2196.14 10811.9 2201.39 10815.3 2206.63C10822.2 2217.4 10829.1 2228.18 10835.9 2238.97C10842.3 2249.03 10848.7 2259.07 10855.2 2269.1C10858.5 2274.33 10861.9 2279.55 10865.2 2284.78C10866.5 2286.86 10867.9 2288.94 10869.2 2291.03C10877.2 2303.53 10885.2 2316.03 10893.2 2328.53C10893.9 2329.56 10894.5 2330.59 10895.2 2331.65C10896.5 2333.73 10897.9 2335.81 10899.2 2337.89C10902.6 2343.14 10905.9 2348.39 10909.3 2353.63C10916.2 2364.4 10923.1 2375.18 10929.9 2385.97C10936.3 2396.03 10942.7 2406.07 10949.2 2416.1C10952.5 2421.33 10955.9 2426.55 10959.2 2431.78C10960.5 2433.86 10961.9 2435.94 10963.2 2438.03C10971.2 2450.53 10979.2 2463.03 10987.2 2475.53C10987.9 2476.56 10988.5 2477.59 10989.2 2478.65C10990.5 2480.73 10991.9 2482.81 10993.2 2484.89C10996.6 2490.14 10999.9 2495.39 11003.3 2500.63C11010.2 2511.4 11017.1 2522.18 11023.9 2532.97C11030.3 2543.03 11036.7 2553.07 11043.2 2563.1C11046.5 2568.33 11049.9 2573.55 11053.2 2578.78C11054.5 2580.86 11055.9 2582.94 11057.2 2585.03C11065.2 2597.53 11073.2 2610.03 11081.2 2622.53C11081.9 2623.56 11082.5 2624.59 11083.2 2625.65C11084.5 2627.73 11085.9 2629.81 11087.2 2631.89C11090.6 2637.14 11093.9 2642.39 11097.3 2647.63C11104.2 2658.4 11111.1 2669.18 11117.9 2679.97C11124.3 2690.03 11130.7 2700.07 11137.2 2710.1C11140.5 2715.33 11143.9 2720.55 11147.2 2725.78C11148.5 2727.86 11149.9 2729.94 11151.2 2732.03C11159.2 2744.53 11167.2 2757.03 11175.2 2769.53C11175.9 2770.56 11176.5 2771.59 11177.2 2772.65C11178.5 2774.73 11179.9 2776.81 11181.2 2778.89C11184.6 2784.14 11187.9 2789.39 11191.3 2794.63C11198.2 2805.4 11205.1 2816.18 11211.9 2826.97C11218.3 2837.03 11224.7 2847.07 11231.2 2857.1C11234.5 2862.33 11237.9 2867.55 11241.2 2872.78C11242.5 2874.86 11243.9 2876.94 11245.2 2879.03C11269.2 2916.53 11269.2 2916.53 11271.2 2919.65C11272.5 2921.73 11273.9 2923.8 11275.2 2925.88C11278.6 2931.22 11282 2936.57 11285.5 2941.91C11286.2 2943 11286.8 2944.09 11287.6 2945.22C11288.9 2947.35 11290.3 2949.49 11291.7 2951.62C11294.5 2956.05 11297.3 2960.48 11300.2 2964.89C11300.6 2965.55 11301.1 2966.21 11301.5 2966.89C11302.6 2968.56 11303.7 2970.23 11304.8 2971.9C11306.2 2974.28 11306.2 2974.28 11306.2 2976.28C11248.6 2976.57 11191 2976.84 11133.4 2977C11132.5 2977 11131.6 2977 11130.8 2977C11112.2 2977.05 11093.7 2977.1 11075.2 2977.14C11066.1 2977.17 11057 2977.19 11047.9 2977.21C11046.5 2977.21 11046.5 2977.21 11045.2 2977.22C11015.8 2977.29 10986.5 2977.42 10957.2 2977.57C10927.1 2977.73 10897 2977.84 10866.8 2977.87C10862.6 2977.88 10858.3 2977.88 10854.1 2977.89C10853.2 2977.89 10852.4 2977.89 10851.5 2977.89C10838.1 2977.91 10824.6 2977.99 10811.1 2978.09C10797.5 2978.19 10784 2978.23 10770.4 2978.21C10762.4 2978.19 10754.3 2978.23 10746.3 2978.33C10740.3 2978.4 10734.3 2978.38 10728.2 2978.33C10725.8 2978.32 10723.4 2978.35 10720.9 2978.4C10703.2 2978.76 10703.2 2978.76 10698.2 2974.6C10694.7 2970.58 10692.3 2966.14 10690.1 2961.3C10688.9 2958.55 10687.3 2956.08 10685.6 2953.58C10684.5 2951.91 10683.5 2950.25 10682.4 2948.59C10681.2 2946.71 10680 2944.82 10678.8 2942.94C10678.2 2942 10677.6 2941.06 10677 2940.09C10669.1 2927.64 10661.2 2915.2 10653.2 2902.78C10645.3 2890.4 10637.4 2877.99 10629.5 2865.59C10622.1 2853.91 10614.6 2842.25 10607.2 2830.59C10602.3 2822.93 10597.4 2815.26 10592.5 2807.58C10588.1 2800.64 10583.6 2793.71 10579.2 2786.78C10571.3 2774.4 10563.4 2761.99 10555.5 2749.59C10548.8 2738.97 10542 2728.37 10535.2 2717.78C10527.3 2705.4 10519.4 2692.99 10511.5 2680.59C10504.1 2668.91 10496.6 2657.24 10489.2 2645.59C10484.3 2637.93 10479.4 2630.26 10474.5 2622.58C10470.1 2615.64 10465.6 2608.71 10461.2 2601.78C10453.3 2589.4 10445.4 2576.99 10437.5 2564.59C10430.8 2553.97 10424 2543.37 10417.2 2532.78C10409.3 2520.4 10401.4 2507.99 10393.5 2495.59C10386.8 2484.97 10380 2474.37 10373.2 2463.78C10365.3 2451.4 10357.4 2438.99 10349.5 2426.59C10342.1 2414.91 10334.6 2403.24 10327.2 2391.59C10322.3 2383.93 10317.4 2376.26 10312.5 2368.58C10308.1 2361.64 10303.6 2354.71 10299.2 2347.78C10291.3 2335.4 10283.4 2322.99 10275.5 2310.59C10268.8 2299.97 10262 2289.37 10255.2 2278.78C10247.3 2266.4 10239.4 2253.99 10231.5 2241.59C10224.1 2229.91 10216.6 2218.24 10209.2 2206.59C10204.3 2198.93 10199.4 2191.26 10194.5 2183.58C10190.1 2176.64 10185.6 2169.71 10181.2 2162.78C10173.3 2150.4 10165.4 2137.99 10157.5 2125.59C10150.8 2114.97 10144 2104.37 10137.2 2093.78C10129.3 2081.4 10121.4 2068.99 10113.5 2056.59C10106.1 2044.91 10098.6 2033.25 10091.2 2021.59C10086.3 2013.93 10081.4 2006.26 10076.5 1998.58C10072.1 1991.64 10067.6 1984.71 10063.2 1977.78C10055.3 1965.4 10047.4 1952.99 10039.5 1940.59C10032.8 1929.97 10026 1919.37 10019.2 1908.78C10011.3 1896.4 10003.4 1883.99 9995.5 1871.59C9988.75 1860.97 9981.99 1850.37 9975.21 1839.78C9967.28 1827.4 9959.39 1814.99 9951.5 1802.59C9944.58 1791.7 9937.65 1780.83 9930.71 1769.96C9930.05 1768.93 9929.39 1767.9 9928.71 1766.84C9927.77 1765.36 9927.77 1765.36 9926.8 1763.85C9926.2 1762.91 9925.6 1761.97 9924.98 1761C9922.81 1757.66 9920.55 1754.38 9918.26 1751.13C9917.21 1749.28 9917.21 1749.28 9917.21 1746.28C10010.5 1745.25 10103.8 1744.8 10197 1744.33C10212.3 1744.25 10227.5 1744.17 10242.8 1744.09C10246 1744.08 10249.3 1744.06 10252.5 1744.04C10262.2 1743.99 10271.9 1743.94 10281.6 1743.89C10302.5 1743.77 10323.3 1743.67 10344.2 1743.62C10352.1 1743.6 10360 1743.57 10368 1743.55C10369.9 1743.54 10371.8 1743.54 10373.8 1743.53C10396.9 1743.46 10420 1743.23 10443.2 1742.55Z" fill="white"/>
<path d="M5841.21 4017.28C5864.64 4017.28 5888.07 4017.28 5912.21 4017.28C5917.16 4025.2 5917.16 4025.2 5922.21 4033.28C5924.74 4037.26 5927.28 4041.24 5929.83 4045.21C5931.22 4047.38 5932.61 4049.54 5934 4051.71C5935.04 4053.34 5935.04 4053.34 5936.11 4055.01C5939.48 4060.26 5942.84 4065.52 5946.21 4070.78C5950.23 4077.06 5954.25 4083.35 5958.28 4089.63C5965.18 4100.4 5972.06 4111.18 5978.92 4121.97C5985.32 4132.03 5991.75 4142.07 5998.18 4152.1C6002.19 4158.37 6006.19 4164.63 6010.2 4170.89C6013.56 4176.14 6016.92 4181.39 6020.28 4186.63C6027.18 4197.4 6034.06 4208.18 6040.92 4218.97C6047.32 4229.03 6053.75 4239.07 6060.18 4249.1C6064.19 4255.37 6068.19 4261.63 6072.2 4267.89C6075.56 4273.14 6078.92 4278.39 6082.28 4283.63C6088.68 4293.63 6095.08 4303.63 6101.46 4313.65C6101.96 4314.44 6102.47 4315.24 6102.99 4316.06C6108.75 4325.11 6114.47 4334.2 6120.21 4343.28C6120.54 4235.7 6120.87 4128.12 6121.21 4017.28C6135.4 4017.28 6149.59 4017.28 6164.21 4017.28C6164.21 4136.74 6164.21 4256.2 6164.21 4379.28C6140.78 4379.28 6117.35 4379.28 6093.21 4379.28C6087.48 4370.69 6081.78 4362.13 6076.27 4353.4C6072.15 4346.9 6068.02 4340.42 6063.83 4333.96C6055.86 4321.68 6047.99 4309.33 6040.11 4296.99C6033.24 4286.24 6026.37 4275.5 6019.43 4264.81C6014.62 4257.39 6009.87 4249.94 6005.11 4242.49C6001.33 4236.58 5997.53 4230.67 5993.71 4224.78C5985.78 4212.55 5977.95 4200.26 5970.11 4187.99C5963.24 4177.24 5956.37 4166.5 5949.43 4155.81C5944.62 4148.39 5939.87 4140.94 5935.11 4133.49C5931.33 4127.58 5927.53 4121.67 5923.71 4115.78C5919.29 4108.96 5914.9 4102.12 5910.52 4095.28C5909.85 4094.23 5909.18 4093.19 5908.5 4092.11C5905.26 4087.05 5902.03 4082 5898.8 4076.94C5897.32 4074.61 5895.83 4072.28 5894.34 4069.96C5893.29 4068.3 5892.23 4066.64 5891.17 4064.98C5890.54 4063.99 5889.9 4062.99 5889.24 4061.96C5888.68 4061.08 5888.12 4060.2 5887.54 4059.29C5886.36 4057.36 5886.36 4057.36 5885.21 4056.28C5884.88 4162.87 5884.55 4269.46 5884.21 4379.28C5870.02 4379.28 5855.83 4379.28 5841.21 4379.28C5841.21 4259.82 5841.21 4140.36 5841.21 4017.28Z" fill="white"/>
<path d="M9773.21 4017.28C9805.32 4017.23 9837.43 4017.19 9870.52 4017.15C9885.69 4017.12 9885.69 4017.12 9901.16 4017.1C9913.58 4017.09 9913.58 4017.09 9919.41 4017.08C9923.45 4017.08 9927.49 4017.08 9931.53 4017.06C9936.7 4017.05 9941.88 4017.05 9947.05 4017.05C9948.94 4017.05 9950.83 4017.04 9952.71 4017.04C9968.2 4016.98 9983.78 4017.69 9998.96 4021.03C9999.73 4021.19 10000.5 4021.36 10001.3 4021.54C10021 4026.05 10038.8 4035.47 10050.1 4052.53C10060.7 4069.68 10064.3 4090.87 10064.4 4110.73C10064.4 4111.72 10064.4 4112.7 10064.4 4113.71C10064.4 4115.79 10064.4 4117.86 10064.4 4119.94C10064.5 4123.04 10064.5 4126.15 10064.5 4129.25C10064.6 4149.99 10064 4175.41 10050.2 4192.28C10049.4 4193.25 10048.7 4194.23 10047.9 4195.24C10037.5 4207.61 10020.4 4213.04 10005.2 4216.28C10006.2 4216.48 10007.2 4216.69 10008.2 4216.9C10024.7 4220.56 10039.1 4227.03 10049 4241.46C10056.9 4254.7 10059.6 4269.16 10059.4 4284.37C10059.4 4285.4 10059.4 4286.44 10059.4 4287.51C10059.4 4290.88 10059.4 4294.26 10059.4 4297.63C10059.4 4299.99 10059.4 4302.35 10059.4 4304.71C10059.4 4310.89 10059.4 4317.06 10059.3 4323.24C10059.3 4329.55 10059.3 4335.87 10059.3 4342.18C10059.3 4354.55 10059.2 4366.91 10059.2 4379.28C10045 4379.28 10030.8 4379.28 10016.2 4379.28C10016.2 4372.61 10016.1 4365.95 10016.1 4359.09C10016.1 4354.84 10016 4350.59 10016 4346.34C10015.9 4339.61 10015.9 4332.88 10015.9 4326.15C10015.8 4320.71 10015.8 4315.28 10015.7 4309.85C10015.7 4307.79 10015.7 4305.73 10015.7 4303.67C10015.6 4284.62 10015.5 4264.44 10001.8 4249.65C9981.1 4230.49 9951.08 4234.12 9924.83 4233.97C9921.41 4233.95 9917.99 4233.93 9914.56 4233.9C9904.61 4233.83 9894.66 4233.77 9884.71 4233.71C9862.43 4233.57 9840.16 4233.42 9817.21 4233.28C9817.21 4281.46 9817.21 4329.64 9817.21 4379.28C9802.69 4379.28 9788.17 4379.28 9773.21 4379.28C9773.21 4259.82 9773.21 4140.36 9773.21 4017.28ZM9817.21 4053.28C9817.21 4100.8 9817.21 4148.32 9817.21 4197.28C9840.74 4197.34 9864.27 4197.4 9888.52 4197.46C9895.92 4197.49 9903.31 4197.52 9910.94 4197.55C9917.64 4197.56 9917.64 4197.56 9924.34 4197.56C9927.3 4197.56 9930.25 4197.58 9933.21 4197.59C9972.83 4198.53 9972.84 4198.53 10007 4180.9C10017.6 4169.43 10021.3 4153.88 10021.4 4138.57C10021.4 4137.85 10021.4 4137.13 10021.4 4136.39C10021.4 4134.08 10021.4 4131.77 10021.4 4129.46C10021.4 4128.28 10021.4 4128.28 10021.4 4127.08C10021.9 4095.88 10021.9 4095.88 10009.5 4068.42C9994.45 4054.22 9972.93 4053.11 9953.33 4053.16C9951.84 4053.16 9950.35 4053.16 9948.86 4053.16C9944.84 4053.16 9940.82 4053.17 9936.8 4053.17C9932.6 4053.18 9928.39 4053.18 9924.18 4053.18C9916.22 4053.19 9908.26 4053.19 9900.31 4053.2C9889.55 4053.22 9878.79 4053.22 9868.02 4053.23C9851.09 4053.24 9834.15 4053.26 9817.21 4053.28Z" fill="white"/>
<path d="M11991.2 4013.28C11992.3 4013.29 11993.5 4013.31 11994.6 4013.33C12066.1 4014.77 12066.1 4014.77 12089.7 4038.62C12110 4060.31 12110.5 4088.21 12110.2 4116.28C12096 4116.28 12081.8 4116.28 12067.2 4116.28C12066.8 4110.24 12066.8 4110.24 12066.4 4104.09C12065.3 4088.65 12064 4073.52 12052.2 4062.28C12025.3 4040.11 11964.1 4049.19 11931.2 4052.28C11907.9 4054.75 11907.9 4054.75 11889.2 4067.65C11876.6 4086.04 11876.3 4111.68 11880 4133C11882.4 4145.45 11887.1 4157.18 11898 4164.48C11907.4 4169.66 11918.6 4170.82 11929.1 4171.83C11930.3 4171.96 11931.5 4172.08 11932.8 4172.21C11948.9 4173.73 11965 4174.45 11981.1 4175.22C12020.7 4177.1 12020.7 4177.1 12033.9 4178.28C12034.7 4178.36 12035.5 4178.43 12036.4 4178.5C12058.7 4180.68 12083.6 4185.96 12099.2 4203.28C12114.7 4224.27 12117.4 4249.97 12117.4 4275.28C12117.4 4277.74 12117.4 4280.21 12117.4 4282.67C12117.5 4308.2 12115.1 4337.56 12097.3 4357.46C12076 4377.66 12043.9 4381.73 12015.9 4382.83C12014.8 4382.87 12013.8 4382.91 12012.7 4382.95C11999.2 4383.44 11985.7 4383.47 11972.1 4383.46C11971.1 4383.46 11971.1 4383.46 11970.1 4383.46C11949.8 4383.46 11929.5 4383.39 11909.2 4381.28C11908.3 4381.18 11907.3 4381.08 11906.4 4380.98C11885.5 4378.69 11864.8 4371.08 11851.2 4354.28C11832.5 4327.78 11831.9 4297.54 11832.2 4266.28C11846.4 4266.28 11860.6 4266.28 11875.2 4266.28C11875.3 4270.05 11875.5 4273.82 11875.6 4277.71C11876.4 4308.53 11876.4 4308.53 11892 4334.03C11906.8 4346.18 11924.9 4346.43 11943.2 4346.44C11944.7 4346.45 11946.3 4346.45 11947.8 4346.45C11951.1 4346.46 11954.4 4346.46 11957.6 4346.46C11960.9 4346.46 11964.2 4346.47 11967.5 4346.48C12017.6 4349.31 12017.6 4349.31 12061.2 4330.28C12076.5 4311.42 12075.1 4281.2 12072.8 4258.24C12071.3 4247.26 12067.6 4236.02 12059.5 4228.15C12036.8 4211.15 11990.7 4215.79 11963.8 4214.53C11962.4 4214.46 11961.1 4214.4 11959.8 4214.33C11953.2 4214.02 11946.7 4213.73 11940.1 4213.45C11909.9 4212.12 11877.4 4209.47 11855.2 4186.28C11834.5 4161.76 11832.4 4128.75 11834.5 4098.02C11836.4 4075.62 11842.2 4052.14 11859.2 4036.28C11893.8 4009.54 11949.7 4012.51 11991.2 4013.28Z" fill="white"/>
<path d="M6660.21 4021.28C6660.88 4021.45 6661.55 4021.63 6662.24 4021.81C6683.83 4027.74 6700.97 4042.47 6712.26 4061.58C6729.22 4092.76 6729.38 4129.34 6729.34 4163.87C6729.34 4165.99 6729.34 4168.11 6729.34 4170.23C6729.35 4174.65 6729.34 4179.07 6729.34 4183.49C6729.33 4189.06 6729.34 4194.64 6729.34 4200.21C6729.45 4324.09 6729.45 4324.09 6699.98 4353.63C6665.82 4386.2 6615.26 4383.5 6571.21 4383.46C6569.49 4383.46 6569.49 4383.46 6567.73 4383.46C6468.05 4383.35 6468.05 4383.36 6436.65 4353.87C6405.7 4321.04 6406.86 4268.94 6406.94 4226.92C6406.94 4224.3 6406.94 4221.69 6406.94 4219.07C6406.93 4213.64 6406.94 4208.21 6406.95 4202.79C6406.96 4196.58 6406.95 4190.38 6406.94 4184.18C6406.93 4178.11 6406.93 4172.05 6406.94 4165.98C6406.94 4163.44 6406.94 4160.9 6406.94 4158.37C6406.91 4138.05 6407.15 4117.42 6411.4 4097.46C6411.61 4096.44 6411.82 4095.41 6412.04 4094.35C6417.38 4069.98 6428.02 4047.48 6449.18 4033.11C6502.08 4001 6602.31 4005.74 6660.21 4021.28ZM6468.65 4067.65C6460.29 4077.86 6455.9 4090.55 6453.21 4103.28C6453 4104.22 6452.78 4105.17 6452.56 4106.14C6448.88 4124.86 6450.06 4144.83 6450.08 4163.8C6450.07 4166.41 6450.07 4169.02 6450.07 4171.63C6450.07 4177.06 6450.07 4182.49 6450.08 4187.92C6450.08 4194.14 6450.08 4200.35 6450.08 4206.56C6450.07 4212.62 6450.07 4218.68 6450.07 4224.74C6450.07 4227.29 6450.07 4229.83 6450.07 4232.37C6450.06 4244.37 6450.11 4256.36 6450.64 4268.36C6450.67 4269.21 6450.71 4270.07 6450.75 4270.95C6451.8 4292.04 6455.19 4317.03 6471.42 4332.14C6497.42 4352.06 6538.07 4347.63 6569.25 4347.54C6573.04 4347.53 6576.83 4347.53 6580.63 4347.54C6626.46 4348.8 6626.46 4348.8 6666.96 4330.55C6684.58 4312.71 6686.35 4283.69 6686.37 4260.12C6686.37 4258.72 6686.38 4257.32 6686.38 4255.92C6686.4 4252.13 6686.4 4248.35 6686.41 4244.57C6686.41 4242.2 6686.41 4239.82 6686.42 4237.44C6686.43 4229.97 6686.44 4222.5 6686.45 4215.03C6686.45 4206.48 6686.47 4197.93 6686.5 4189.37C6686.52 4182.72 6686.53 4176.06 6686.53 4169.41C6686.53 4165.45 6686.54 4161.5 6686.56 4157.55C6687.61 4109.2 6687.61 4109.2 6667.24 4067.08C6652.38 4053.86 6633 4050.4 6613.77 4049.71C6612.69 4049.67 6611.6 4049.63 6610.48 4049.59C6598.45 4049.17 6586.43 4049.08 6574.4 4049.09C6572.68 4049.09 6572.68 4049.09 6570.94 4049.09C6516.12 4046.36 6516.12 4046.36 6468.65 4067.65Z" fill="white"/>
<path d="M7721.96 4042.46C7736.05 4057.19 7743.55 4075.73 7748.21 4095.28C7748.51 4096.47 7748.8 4097.66 7749.11 4098.89C7755.37 4127.4 7753.5 4158.17 7753.4 4187.16C7753.39 4191.4 7753.39 4195.63 7753.39 4199.87C7753.39 4324.15 7753.39 4324.15 7723.98 4353.63C7689.69 4386.33 7638.85 4383.5 7594.65 4383.46C7593.47 4383.46 7592.3 4383.46 7591.09 4383.46C7572.39 4383.44 7553.83 4383.08 7535.21 4381.28C7534.15 4381.17 7533.09 4381.07 7531.99 4380.97C7503.43 4378.07 7475.67 4371.51 7456.09 4348.82C7430.37 4315.39 7431.05 4269.73 7431.04 4229.55C7431.04 4227.56 7431.03 4225.56 7431.03 4223.56C7431.02 4217.29 7431.02 4211.03 7431.02 4204.76C7431.02 4198.37 7431.01 4191.98 7431 4185.59C7430.98 4180.04 7430.98 4174.49 7430.98 4168.93C7430.98 4165.65 7430.98 4162.36 7430.97 4159.07C7430.91 4138.51 7431.1 4117.66 7435.4 4097.46C7435.61 4096.44 7435.82 4095.41 7436.04 4094.35C7441.45 4069.66 7452.5 4046.56 7474.21 4032.28C7528.79 4000.2 7673.21 3996.3 7721.96 4042.46ZM7492.65 4067.65C7484.29 4077.85 7479.89 4090.55 7477.21 4103.28C7477 4104.25 7476.78 4105.21 7476.56 4106.21C7473.04 4124.48 7474.06 4143.77 7474.08 4162.26C7474.07 4164.94 7474.07 4167.62 7474.07 4170.3C7474.07 4175.88 7474.07 4181.47 7474.08 4187.05C7474.08 4193.44 7474.08 4199.84 7474.08 4206.23C7474.07 4211.78 7474.07 4217.33 7474.07 4222.89C7474.07 4226.18 7474.07 4229.46 7474.07 4232.75C7474.06 4244.99 7474.11 4257.21 7474.64 4269.43C7474.67 4270.29 7474.71 4271.15 7474.75 4272.03C7475.78 4292.74 7479.54 4317.35 7495.42 4332.14C7521.42 4352.06 7562.07 4347.63 7593.25 4347.54C7597.04 4347.53 7600.83 4347.53 7604.63 4347.54C7650.45 4348.79 7650.45 4348.79 7690.96 4330.56C7708.69 4312.55 7710.35 4282.91 7710.37 4259.1C7710.37 4257.71 7710.38 4256.31 7710.38 4254.92C7710.4 4251.17 7710.4 4247.42 7710.41 4243.67C7710.41 4241.31 7710.41 4238.96 7710.42 4236.6C7710.43 4229.19 7710.44 4221.77 7710.45 4214.36C7710.45 4205.88 7710.47 4197.39 7710.5 4188.91C7710.52 4182.3 7710.53 4175.7 7710.53 4169.1C7710.53 4165.17 7710.54 4161.25 7710.56 4157.33C7711.58 4109.1 7711.58 4109.1 7691.24 4067.08C7676.38 4053.85 7657 4050.4 7637.77 4049.71C7636.69 4049.67 7635.6 4049.63 7634.48 4049.59C7622.45 4049.17 7610.43 4049.08 7598.4 4049.09C7596.68 4049.09 7596.68 4049.09 7594.94 4049.09C7540.12 4046.36 7540.12 4046.36 7492.65 4067.65Z" fill="white"/>
<path d="M11098.2 4017.28C11118.3 4017.28 11138.5 4017.28 11159.2 4017.28C11178 4064.53 11178 4064.53 11185.8 4084.9C11191.2 4099.01 11196.6 4113.09 11202.1 4127.15C11202.5 4128.12 11202.9 4129.09 11203.3 4130.08C11204.8 4133.97 11206.3 4137.86 11207.9 4141.75C11211.7 4151.52 11215.5 4161.31 11219.3 4171.09C11220 4172.78 11220.7 4174.47 11221.3 4176.15C11222.6 4179.51 11223.9 4182.87 11225.2 4186.23C11228.2 4193.89 11231.2 4201.55 11234.2 4209.21C11235.9 4213.48 11237.5 4217.75 11239.2 4222.03C11239.9 4223.73 11240.5 4225.44 11241.2 4227.15C11245.2 4237.4 11245.2 4237.4 11246.2 4239.96C11246.9 4241.67 11247.5 4243.38 11248.2 4245.09C11249.9 4249.36 11251.5 4253.64 11253.2 4257.92C11256.2 4265.53 11259.2 4273.15 11262.1 4280.76C11269.9 4300.67 11277.7 4320.59 11285.4 4340.53C11285.8 4341.57 11286.2 4342.62 11286.6 4343.7C11288.5 4348.56 11290.4 4353.42 11292.3 4358.28C11293.5 4361.35 11294.7 4364.41 11295.9 4367.47C11296.3 4368.64 11296.8 4369.81 11297.3 4371.01C11297.6 4371.98 11298 4372.94 11298.4 4373.94C11299.2 4376.28 11299.2 4376.28 11299.2 4379.28C11284.4 4379.28 11269.5 4379.28 11254.2 4379.28C11251.1 4371.91 11248.1 4364.56 11245.2 4357.11C11244.9 4356.19 11244.5 4355.28 11244.2 4354.33C11243.1 4351.44 11241.9 4348.55 11240.8 4345.65C11239.7 4342.79 11238.6 4339.93 11237.5 4337.06C11236.8 4335.19 11236.1 4333.32 11235.4 4331.44C11233.6 4326.94 11231.9 4322.43 11230.1 4317.94C11229.8 4317.1 11229.5 4316.27 11229.1 4315.41C11228.5 4313.84 11227.9 4312.28 11227.3 4310.71C11225.2 4305.5 11225.2 4305.5 11225.2 4303.28C11131.2 4303.77 11131.2 4303.77 11035.2 4304.28C11021.6 4340.24 11021.6 4340.24 11008.1 4376.21C11007.2 4378.28 11007.2 4378.28 11006.2 4379.28C11004.8 4379.37 11003.3 4379.39 11001.9 4379.39C11000.5 4379.39 11000.5 4379.39 10999.1 4379.39C10998.1 4379.38 10997.1 4379.38 10996 4379.37C10995 4379.37 10994 4379.37 10993 4379.37C10989.7 4379.36 10986.4 4379.35 10983.1 4379.34C10980.9 4379.33 10978.7 4379.33 10976.5 4379.32C10971.1 4379.31 10965.6 4379.3 10960.2 4379.28C10962.1 4372.68 10964.2 4366.24 10966.7 4359.83C10967.2 4358.51 10967.2 4358.51 10967.7 4357.17C10968.8 4354.31 10969.9 4351.45 10971 4348.59C10971.7 4346.56 10972.5 4344.53 10973.3 4342.5C10978.6 4328.56 10983.9 4314.63 10989.3 4300.71C10994.7 4286.58 11000.1 4272.43 11005.5 4258.28C11012.1 4241.11 11018.6 4223.94 11025.2 4206.78C11031.7 4189.78 11038.2 4172.78 11044.7 4155.78C11051.9 4136.89 11059.1 4118.01 11066.4 4099.14C11070.3 4088.88 11074.2 4078.62 11078.1 4068.35C11079.6 4064.56 11081 4060.77 11082.5 4056.98C11083.6 4053.91 11084.8 4050.84 11086 4047.77C11087.3 4044.36 11088.6 4040.94 11089.9 4037.53C11090.2 4036.53 11090.6 4035.52 11091 4034.48C11091.4 4033.53 11091.7 4032.58 11092.1 4031.6C11092.4 4030.79 11092.7 4029.97 11093.1 4029.13C11094.7 4025.14 11096.5 4021.21 11098.2 4017.28ZM11129.2 4053.28C11124 4066.11 11119 4079 11114.2 4091.98C11112.2 4097.2 11110.3 4102.42 11108.3 4107.65C11107.9 4108.75 11107.5 4109.85 11107.1 4110.99C11102.2 4123.99 11097.3 4136.98 11092.3 4149.96C11084.7 4170.17 11077 4190.38 11069.4 4210.6C11065.3 4221.43 11061.2 4232.24 11057.1 4243.03C11056.8 4243.85 11056.4 4244.67 11056.1 4245.51C11054.7 4249.21 11053.3 4252.92 11051.8 4256.62C11051.3 4257.89 11050.8 4259.15 11050.3 4260.41C11049.9 4261.48 11049.5 4262.55 11049.1 4263.66C11048 4266.29 11048 4266.29 11048.2 4269.28C11102.3 4269.28 11156.4 4269.28 11212.2 4269.28C11207.4 4255.72 11207.4 4255.72 11202.4 4242.27C11202.1 4241.4 11201.8 4240.53 11201.4 4239.64C11200.7 4237.78 11200 4235.92 11199.3 4234.06C11197.7 4229.98 11196.1 4225.9 11194.6 4221.82C11193.7 4219.65 11192.9 4217.47 11192.1 4215.3C11187.3 4202.96 11182.6 4190.62 11177.9 4178.28C11177 4175.97 11176.1 4173.66 11175.2 4171.35C11173.9 4167.85 11172.6 4164.35 11171.2 4160.85C11168.1 4152.58 11164.9 4144.31 11161.8 4136.04C11151.2 4108.46 11140.7 4080.87 11130.2 4053.28C11129.9 4053.28 11129.5 4053.28 11129.2 4053.28Z" fill="white"/>
<path d="M3067.64 4017.16C3069.27 4017.16 3069.27 4017.16 3070.92 4017.16C3072.14 4017.16 3073.36 4017.16 3074.62 4017.16C3075.96 4017.17 3077.31 4017.17 3078.65 4017.18C3080.02 4017.18 3081.38 4017.18 3082.75 4017.18C3086.35 4017.19 3089.95 4017.2 3093.55 4017.21C3097.23 4017.22 3100.9 4017.22 3104.57 4017.23C3111.78 4017.24 3119 4017.26 3126.21 4017.28C3126.41 4017.8 3126.61 4018.32 3126.82 4018.86C3137.6 4046.68 3148.4 4074.49 3159.26 4102.28C3162.91 4111.63 3166.56 4120.99 3170.21 4130.35C3171.21 4132.92 3172.22 4135.49 3173.22 4138.06C3173.72 4139.33 3173.72 4139.33 3174.22 4140.62C3176.19 4145.67 3178.16 4150.71 3180.13 4155.76C3181.76 4159.93 3183.39 4164.1 3185.02 4168.28C3185.35 4169.11 3185.67 4169.95 3186.01 4170.81C3191.12 4183.89 3196.19 4196.98 3201.26 4210.07C3201.66 4211.09 3202.05 4212.1 3202.46 4213.15C3203.05 4214.68 3203.05 4214.68 3203.66 4216.24C3210.21 4233.17 3216.82 4250.07 3223.46 4266.97C3230.09 4283.84 3236.67 4300.74 3243.2 4317.65C3247.34 4328.34 3251.49 4339.03 3255.73 4349.69C3256.09 4350.58 3256.44 4351.48 3256.81 4352.4C3258.48 4356.6 3260.16 4360.8 3261.84 4365C3262.43 4366.46 3263.01 4367.93 3263.59 4369.39C3263.86 4370.05 3264.13 4370.71 3264.41 4371.39C3265.52 4374.2 3266.21 4376.23 3266.21 4379.28C3251.03 4379.28 3235.85 4379.28 3220.21 4379.28C3218 4373.38 3215.79 4367.48 3213.52 4361.4C3209.49 4350.63 3205.45 4339.86 3201.32 4329.12C3200.86 4327.94 3200.86 4327.94 3200.4 4326.73C3198.96 4322.99 3197.52 4319.25 3196.07 4315.51C3195.56 4314.18 3195.04 4312.84 3194.52 4311.5C3194.08 4310.34 3193.63 4309.18 3193.16 4307.99C3192.21 4305.28 3192.21 4305.28 3192.21 4303.28C3098.16 4303.77 3098.16 4303.77 3002.21 4304.28C2997.26 4317.15 2992.31 4330.02 2987.21 4343.28C2984.57 4350.09 2981.93 4356.9 2979.27 4363.71C2977.27 4368.85 2975.27 4373.98 2973.21 4379.28C2958.03 4379.28 2942.85 4379.28 2927.21 4379.28C2928.01 4374.48 2929.09 4370.54 2930.85 4366.09C2931.12 4365.39 2931.4 4364.68 2931.68 4363.95C2932.28 4362.4 2932.89 4360.85 2933.49 4359.31C2934.84 4355.87 2936.17 4352.44 2937.5 4349C2938.23 4347.12 2938.96 4345.23 2939.69 4343.35C2943.9 4332.51 2948.04 4321.65 2952.18 4310.78C2954.43 4304.88 2956.68 4298.99 2958.93 4293.09C2959.38 4291.92 2959.82 4290.76 2960.28 4289.56C2964.65 4278.13 2969.02 4266.7 2973.4 4255.28C2973.76 4254.32 2974.13 4253.36 2974.51 4252.38C2977.44 4244.72 2980.37 4237.07 2983.3 4229.42C2985.88 4222.71 2988.45 4215.99 2991.02 4209.28C2991.39 4208.32 2991.75 4207.36 2992.13 4206.38C2998.78 4189.01 3005.42 4171.63 3012.05 4154.26C3018.45 4137.49 3024.86 4120.72 3031.29 4103.96C3035.82 4092.13 3040.34 4080.31 3044.86 4068.48C3045.34 4067.21 3045.82 4065.95 3046.3 4064.68C3048.64 4058.56 3050.97 4052.44 3053.31 4046.32C3054.16 4044.09 3055.01 4041.86 3055.86 4039.63C3056.24 4038.63 3056.62 4037.63 3057.01 4036.59C3058.79 4031.93 3060.59 4027.27 3062.42 4022.63C3062.9 4021.41 3062.9 4021.41 3063.39 4020.16C3064.63 4017.3 3064.63 4017.3 3067.64 4017.16ZM3095.21 4054.28C3094.93 4055.01 3094.65 4055.75 3094.37 4056.51C3081.78 4089.96 3069.17 4123.41 3056.48 4156.83C3049.43 4175.41 3042.4 4194 3035.39 4212.61C3029.58 4228.02 3023.74 4243.43 3017.81 4258.8C3017.44 4259.77 3017.44 4259.77 3017.06 4260.76C3016.4 4262.47 3015.74 4264.18 3015.08 4265.88C3014.15 4268.01 3014.15 4268.01 3014.21 4269.28C3068.33 4269.28 3122.45 4269.28 3178.21 4269.28C3177.41 4264.48 3176.33 4260.54 3174.57 4256.09C3174.29 4255.39 3174.02 4254.68 3173.74 4253.95C3173.14 4252.4 3172.53 4250.85 3171.93 4249.31C3170.58 4245.87 3169.24 4242.42 3167.91 4238.97C3167.17 4237.09 3166.44 4235.2 3165.71 4233.32C3161.57 4222.64 3157.48 4211.94 3153.4 4201.24C3152.07 4197.74 3150.73 4194.23 3149.39 4190.73C3147.57 4185.95 3145.75 4181.18 3143.93 4176.41C3139.52 4164.86 3135.12 4153.32 3130.71 4141.78C3128.98 4137.26 3127.26 4132.74 3125.53 4128.22C3125.1 4127.1 3124.67 4125.97 3124.23 4124.81C3121.41 4117.44 3118.6 4110.06 3115.78 4102.68C3114.07 4098.19 3112.36 4093.7 3110.64 4089.22C3109.47 4086.15 3108.3 4083.08 3107.13 4080.01C3105.84 4076.63 3104.55 4073.24 3103.26 4069.86C3102.69 4068.36 3102.69 4068.36 3102.1 4066.82C3101.57 4065.44 3101.57 4065.44 3101.03 4064.02C3100.72 4063.22 3100.42 4062.42 3100.1 4061.6C3099.16 4059.15 3098.19 4056.71 3097.21 4054.28C3096.55 4054.28 3095.89 4054.28 3095.21 4054.28Z" fill="white"/>
<path d="M5296.21 4017.28C5310.73 4017.28 5325.25 4017.28 5340.21 4017.28C5340.21 4069.42 5340.21 4121.56 5340.21 4175.28C5373.33 4177.56 5373.33 4177.56 5386.7 4167.24C5389.45 4164.27 5391.99 4161.35 5394.52 4158.21C5395.88 4156.69 5397.24 4155.17 5398.62 4153.66C5401.7 4150.25 5404.66 4146.76 5407.59 4143.23C5413.53 4136.08 5419.89 4129.47 5426.49 4122.93C5427.47 4121.95 5428.45 4120.98 5429.44 4120C5433.05 4116.4 5436.66 4112.81 5440.27 4109.22C5443.34 4106.17 5446.41 4103.12 5449.47 4100.07C5450.89 4098.66 5452.31 4097.25 5453.73 4095.84C5458.13 4091.46 5462.35 4087.03 5466.39 4082.32C5470.16 4078.08 5474.24 4074.14 5478.27 4070.15C5479.23 4069.2 5480.19 4068.24 5481.15 4067.28C5484.68 4063.77 5488.21 4060.26 5491.74 4056.76C5494.74 4053.78 5497.73 4050.8 5500.72 4047.82C5502.11 4046.44 5503.5 4045.06 5504.89 4043.69C5513.74 4034.96 5513.74 4034.96 5521.27 4025.11C5524.6 4020.57 5527.45 4017.81 5533.11 4016.71C5541.2 4015.95 5549.28 4016.22 5557.39 4016.52C5560.75 4016.63 5564.12 4016.68 5567.48 4016.74C5574.06 4016.86 5580.63 4017.04 5587.21 4017.28C5583.84 4021.28 5580.44 4025.16 5576.71 4028.83C5575.91 4029.63 5575.1 4030.43 5574.27 4031.25C5572.61 4032.89 5570.95 4034.53 5569.28 4036.16C5568.48 4036.96 5567.67 4037.76 5566.84 4038.58C5566.12 4039.29 5565.39 4040 5564.65 4040.73C5562.77 4042.69 5561.02 4044.66 5559.27 4046.72C5554.32 4052.41 5548.92 4057.67 5543.57 4062.99C5541.61 4064.94 5539.65 4066.89 5537.69 4068.84C5532.83 4073.69 5527.96 4078.54 5523.09 4083.38C5518.97 4087.48 5514.85 4091.59 5510.73 4095.7C5508.81 4097.61 5506.89 4099.52 5504.97 4101.43C5498.15 4108.17 5498.15 4108.17 5491.71 4115.28C5486.99 4120.82 5481.73 4125.86 5476.57 4130.99C5474.61 4132.94 5472.65 4134.89 5470.69 4136.85C5465.83 4141.69 5460.96 4146.54 5456.09 4151.38C5451.97 4155.48 5447.85 4159.59 5443.73 4163.7C5441.81 4165.61 5439.89 4167.52 5437.97 4169.43C5432.17 4175.2 5426.45 4180.98 5421.21 4187.28C5420.71 4187.87 5420.21 4188.47 5419.69 4189.08C5418.52 4190.47 5417.36 4191.87 5416.21 4193.28C5418.04 4195.13 5419.87 4196.99 5421.71 4198.84C5422.21 4199.35 5422.72 4199.87 5423.24 4200.4C5426.06 4203.24 5428.95 4205.95 5431.99 4208.55C5437.91 4213.67 5443.3 4219.32 5448.79 4224.89C5452.5 4228.64 5456.2 4232.34 5460.21 4235.78C5466.07 4240.8 5471.37 4246.4 5476.79 4251.89C5480.5 4255.64 5484.2 4259.34 5488.21 4262.78C5494.07 4267.8 5499.37 4273.4 5504.79 4278.89C5508.5 4282.64 5512.2 4286.34 5516.21 4289.78C5522.07 4294.8 5527.37 4300.4 5532.79 4305.89C5536.5 4309.64 5540.2 4313.34 5544.21 4316.78C5550.07 4321.8 5555.37 4327.4 5560.79 4332.89C5564.5 4336.64 5568.2 4340.34 5572.21 4343.78C5578.07 4348.8 5583.37 4354.4 5588.79 4359.89C5593.18 4364.33 5597.6 4368.62 5602.42 4372.61C5604.61 4374.65 5606.38 4376.91 5608.21 4379.28C5600.65 4379.6 5593.08 4379.85 5585.52 4380C5582 4380.07 5578.49 4380.17 5574.97 4380.33C5549.19 4381.48 5549.19 4381.48 5541.34 4374.81C5538.94 4372.38 5536.78 4369.85 5534.7 4367.15C5532.37 4364.22 5529.68 4361.71 5526.99 4359.12C5526.03 4358.16 5525.06 4357.19 5524.1 4356.21C5523.64 4355.74 5523.17 4355.27 5522.69 4354.78C5522.22 4354.3 5521.75 4353.83 5521.27 4353.34C5513.99 4345.88 5513.99 4345.88 5506.3 4338.87C5499.85 4333.35 5494.01 4327.14 5488.05 4321.1C5480.83 4313.73 5480.83 4313.73 5473.21 4306.78C5466.78 4301.3 5460.98 4295.1 5455.05 4289.1C5447.85 4281.74 5447.85 4281.74 5440.24 4274.81C5433.6 4269.15 5427.61 4262.73 5421.48 4256.53C5419.79 4254.82 5418.09 4253.11 5416.4 4251.4C5415.85 4250.85 5415.3 4250.3 5414.74 4249.73C5411.94 4246.94 5409.11 4244.29 5406.06 4241.77C5403.21 4239.36 5400.9 4236.75 5398.58 4233.82C5396.76 4231.54 5394.86 4229.33 5392.96 4227.12C5392.01 4225.99 5391.11 4224.84 5390.24 4223.65C5386.26 4218.27 5383.61 4217.15 5377.21 4213.28C5365 4212.95 5352.79 4212.62 5340.21 4212.28C5340.21 4267.39 5340.21 4322.5 5340.21 4379.28C5325.69 4379.28 5311.17 4379.28 5296.21 4379.28C5296.21 4259.82 5296.21 4140.36 5296.21 4017.28Z" fill="white"/>
<path d="M1862.21 4017.28C1876.4 4017.28 1890.59 4017.28 1905.21 4017.28C1905.22 4020.7 1905.22 4024.12 1905.23 4027.65C1905.31 4059.08 1905.39 4090.51 1905.49 4121.94C1905.5 4126.07 1905.51 4130.19 1905.53 4134.32C1905.53 4135.14 1905.53 4135.96 1905.53 4136.81C1905.57 4150.08 1905.61 4163.35 1905.64 4176.62C1905.67 4190.25 1905.71 4203.89 1905.75 4217.52C1905.78 4225.92 1905.8 4234.32 1905.82 4242.72C1905.83 4248.5 1905.84 4254.27 1905.87 4260.04C1905.88 4263.37 1905.89 4266.69 1905.89 4270.01C1905.18 4302.45 1905.18 4302.45 1919.95 4330.15C1932.2 4341.96 1950.99 4343.9 1967.21 4345.28C1968.21 4345.37 1969.22 4345.46 1970.25 4345.55C1983.3 4346.54 1996.36 4346.43 2009.43 4346.41C2012.83 4346.4 2016.22 4346.4 2019.62 4346.41C2037.38 4346.44 2037.38 4346.44 2055.14 4345.85C2055.86 4345.81 2056.58 4345.77 2057.33 4345.74C2072.64 4344.81 2089.09 4341.07 2101.21 4331.28C2101.84 4330.76 2102.48 4330.25 2103.13 4329.73C2114.95 4319.13 2116.25 4301.51 2117.11 4286.56C2117.51 4277.15 2117.39 4267.71 2117.41 4258.29C2117.42 4255.66 2117.43 4253.03 2117.44 4250.39C2117.46 4244.75 2117.48 4239.1 2117.5 4233.45C2117.52 4225.29 2117.55 4217.13 2117.58 4208.96C2117.63 4195.72 2117.67 4182.47 2117.71 4169.22C2117.75 4156.36 2117.79 4143.5 2117.84 4130.64C2117.84 4129.45 2117.84 4129.45 2117.84 4128.23C2117.86 4124.25 2117.87 4120.26 2117.89 4116.28C2118 4083.28 2118.11 4050.28 2118.21 4017.28C2132.4 4017.28 2146.59 4017.28 2161.21 4017.28C2161.25 4051.86 2161.29 4086.44 2161.31 4121.02C2161.31 4125.11 2161.32 4129.21 2161.32 4133.3C2161.32 4134.52 2161.32 4134.52 2161.32 4135.77C2161.33 4148.92 2161.34 4162.07 2161.36 4175.22C2161.38 4188.74 2161.39 4202.26 2161.4 4215.77C2161.4 4224.1 2161.41 4232.43 2161.42 4240.75C2161.43 4246.48 2161.44 4252.2 2161.44 4257.93C2161.43 4261.22 2161.44 4264.52 2161.45 4267.81C2161.5 4285.24 2161.44 4302.79 2157.33 4319.84C2157.16 4320.58 2156.98 4321.32 2156.8 4322.09C2152.35 4340.41 2141.77 4355.48 2125.71 4365.65C2073.55 4395.79 1980.49 4390.12 1923.4 4376.59C1902.02 4370.36 1883.13 4358.06 1872.21 4338.28C1863.86 4322.45 1862.04 4303.19 1862.09 4285.56C1862.09 4284.41 1862.09 4283.26 1862.09 4282.08C1862.08 4278.23 1862.09 4274.39 1862.09 4270.55C1862.1 4267.79 1862.09 4265.03 1862.09 4262.27C1862.09 4256.34 1862.1 4250.4 1862.1 4244.47C1862.11 4235.89 1862.11 4227.31 1862.11 4218.73C1862.12 4204.81 1862.12 4190.89 1862.13 4176.97C1862.14 4163.45 1862.15 4149.93 1862.15 4136.41C1862.15 4135.58 1862.15 4134.74 1862.15 4133.88C1862.16 4129.7 1862.16 4125.52 1862.16 4121.33C1862.17 4086.65 1862.19 4051.96 1862.21 4017.28Z" fill="white"/>
<path d="M9273.21 4017.28C9353.4 4017.28 9433.59 4017.28 9516.21 4017.28C9516.21 4029.16 9516.21 4041.04 9516.21 4053.28C9450.21 4053.28 9384.21 4053.28 9316.21 4053.28C9316.21 4093.21 9316.21 4133.14 9316.21 4174.28C9379.57 4174.28 9442.93 4174.28 9508.21 4174.28C9508.21 4186.16 9508.21 4198.04 9508.21 4210.28C9444.85 4210.28 9381.49 4210.28 9316.21 4210.28C9316.21 4254.17 9316.21 4298.06 9316.21 4343.28C9382.21 4343.28 9448.21 4343.28 9516.21 4343.28C9516.21 4355.16 9516.21 4367.04 9516.21 4379.28C9436.02 4379.28 9355.83 4379.28 9273.21 4379.28C9273.21 4259.82 9273.21 4140.36 9273.21 4017.28Z" fill="white"/>
<path d="M4796.21 4017.28C4876.4 4017.28 4956.59 4017.28 5039.21 4017.28C5039.21 4029.16 5039.21 4041.04 5039.21 4053.28C4973.21 4053.28 4907.21 4053.28 4839.21 4053.28C4839.21 4093.21 4839.21 4133.14 4839.21 4174.28C4902.57 4174.28 4965.93 4174.28 5031.21 4174.28C5031.21 4186.16 5031.21 4198.04 5031.21 4210.28C4967.85 4210.28 4904.49 4210.28 4839.21 4210.28C4839.21 4254.17 4839.21 4298.06 4839.21 4343.28C4905.21 4343.28 4971.21 4343.28 5039.21 4343.28C5039.21 4355.16 5039.21 4367.04 5039.21 4379.28C4959.02 4379.28 4878.83 4379.28 4796.21 4379.28C4796.21 4259.82 4796.21 4140.36 4796.21 4017.28Z" fill="white"/>
<path d="M2420.21 4017.28C2513.6 4017.28 2606.99 4017.28 2703.21 4017.28C2703.21 4054.28 2703.21 4054.28 2691.21 4068.28C2688.15 4072.06 2688.15 4072.06 2685.11 4075.87C2683.11 4078.4 2681.07 4080.9 2679.02 4083.4C2675.24 4088.02 2671.47 4092.64 2667.71 4097.28C2663.34 4102.65 2658.97 4108.01 2654.58 4113.37C2651.62 4117 2648.66 4120.64 2645.71 4124.28C2641.34 4129.65 2636.97 4135.01 2632.58 4140.37C2629.62 4144 2626.66 4147.64 2623.71 4151.28C2619.34 4156.65 2614.97 4162.01 2610.58 4167.37C2607.62 4171 2604.66 4174.64 2601.71 4178.28C2598.05 4182.78 2594.39 4187.29 2590.71 4191.78C2584.85 4198.92 2579.03 4206.1 2573.21 4213.28C2566.68 4221.32 2560.15 4229.36 2553.58 4237.37C2550.62 4241 2547.66 4244.64 2544.71 4248.28C2540.34 4253.65 2535.97 4259.01 2531.58 4264.37C2528.62 4268 2525.66 4271.64 2522.71 4275.28C2518.34 4280.65 2513.97 4286.01 2509.58 4291.37C2506.62 4295 2503.66 4298.64 2500.71 4302.28C2497.05 4306.78 2493.39 4311.29 2489.71 4315.78C2485.93 4320.39 2482.16 4325.02 2478.4 4329.65C2477.84 4330.33 2477.29 4331.01 2476.72 4331.71C2475.93 4332.68 2475.93 4332.68 2475.13 4333.67C2474.66 4334.25 2474.19 4334.82 2473.71 4335.41C2471.87 4337.69 2470.04 4339.99 2468.21 4342.28C2547.41 4342.61 2626.61 4342.94 2708.21 4343.28C2708.21 4355.16 2708.21 4367.04 2708.21 4379.28C2610.86 4379.28 2513.51 4379.28 2413.21 4379.28C2413.21 4341.09 2413.21 4341.09 2432.46 4318.56C2435.3 4315.2 2438.01 4311.75 2440.71 4308.28C2444.71 4303.13 2448.84 4298.12 2453.08 4293.17C2456.4 4289.28 2459.57 4285.31 2462.71 4281.28C2466.71 4276.13 2470.84 4271.12 2475.08 4266.17C2478.4 4262.28 2481.57 4258.31 2484.71 4254.28C2488.71 4249.13 2492.84 4244.12 2497.08 4239.17C2500.4 4235.28 2503.57 4231.31 2506.71 4227.28C2510.71 4222.13 2514.84 4217.12 2519.08 4212.17C2522.4 4208.28 2525.57 4204.31 2528.71 4200.28C2532.71 4195.13 2536.84 4190.12 2541.08 4185.17C2544.4 4181.28 2547.57 4177.31 2550.71 4173.28C2554.71 4168.13 2558.84 4163.12 2563.08 4158.17C2566.4 4154.28 2569.57 4150.31 2572.71 4146.28C2576.71 4141.13 2580.84 4136.12 2585.08 4131.17C2588.4 4127.28 2591.57 4123.31 2594.71 4119.28C2598.71 4114.13 2602.84 4109.12 2607.08 4104.17C2610.4 4100.28 2613.57 4096.31 2616.71 4092.28C2620.28 4087.69 2623.93 4083.19 2627.71 4078.78C2632.57 4073.1 2637.21 4067.27 2641.8 4061.37C2643.91 4058.65 2646.06 4055.96 2648.21 4053.28C2572.97 4053.28 2497.73 4053.28 2420.21 4053.28C2420.21 4041.4 2420.21 4029.52 2420.21 4017.28Z" fill="white"/>
<path d="M3411.21 4017.28C3452.06 4010.49 3452.06 4010.49 3464.88 4019.06C3475.59 4028.65 3482.22 4042.32 3488.54 4055.01C3496.07 4070.1 3506.24 4083.86 3515.71 4097.78C3530.02 4118.82 3530.02 4118.82 3536.69 4129.63C3540.61 4135.97 3544.73 4142.16 3548.88 4148.34C3551.06 4151.57 3553.22 4154.8 3555.38 4158.04C3555.8 4158.67 3556.22 4159.3 3556.66 4159.95C3560.94 4166.36 3565.14 4172.83 3569.31 4179.32C3570.59 4181.32 3571.89 4183.3 3573.21 4185.28C3578.21 4178.27 3582.92 4171.11 3587.52 4163.84C3593.33 4154.7 3599.25 4145.65 3605.27 4136.65C3610.61 4128.68 3615.92 4120.7 3621.15 4112.65C3625.27 4106.3 3629.41 4099.96 3633.57 4093.62C3634.64 4091.99 3635.72 4090.35 3636.79 4088.72C3639.64 4084.36 3642.52 4080.03 3645.46 4075.73C3651.07 4067.45 3656.36 4059.25 3660.84 4050.3C3675.93 4020.21 3675.93 4020.21 3687.22 4016.21C3703.17 4012.63 3720.24 4014.75 3736.21 4017.28C3734.81 4020.91 3733.33 4023.68 3730.96 4026.78C3727.1 4031.98 3723.47 4037.31 3719.9 4042.71C3714.36 4051.06 3708.77 4059.37 3703.15 4067.65C3702.34 4068.84 3701.53 4070.02 3700.73 4071.21C3699.49 4073.04 3698.25 4074.86 3697.01 4076.68C3692.28 4083.65 3687.55 4090.62 3682.83 4097.59C3681.95 4098.89 3681.07 4100.19 3680.19 4101.5C3678.41 4104.11 3676.64 4106.73 3674.87 4109.35C3670.04 4116.47 3665.22 4123.59 3660.4 4130.71C3659.09 4132.64 3657.78 4134.58 3656.47 4136.51C3656.03 4137.15 3655.6 4137.79 3655.15 4138.45C3652.51 4142.35 3649.86 4146.26 3647.22 4150.17C3638.3 4163.33 3629.39 4176.49 3620.46 4189.65C3619.78 4190.66 3619.09 4191.66 3618.39 4192.7C3617.7 4193.72 3617 4194.75 3616.29 4195.8C3615.23 4197.41 3615.23 4197.41 3614.16 4199.06C3611.98 4202.3 3609.58 4205.25 3607.06 4208.23C3593.21 4225.38 3591.78 4239.77 3592.28 4261.3C3592.36 4265.47 3592.34 4269.63 3592.33 4273.8C3592.33 4281.64 3592.42 4289.48 3592.54 4297.33C3592.67 4306.28 3592.7 4315.23 3592.73 4324.17C3592.78 4342.54 3592.97 4360.91 3593.21 4379.28C3579.02 4379.28 3564.83 4379.28 3550.21 4379.28C3550.33 4374.9 3550.45 4370.52 3550.58 4366.01C3550.96 4351.35 3551.18 4336.7 3551.32 4322.05C3551.41 4313.18 3551.55 4304.32 3551.82 4295.46C3553.68 4238.75 3553.68 4238.75 3525.74 4190.66C3519.28 4183.49 3514.41 4175.55 3509.45 4167.31C3506.8 4162.97 3503.91 4158.78 3501.04 4154.58C3500.44 4153.69 3499.84 4152.8 3499.22 4151.88C3497.34 4149.11 3495.46 4146.35 3493.58 4143.59C3486.53 4133.23 3479.5 4122.89 3472.92 4112.22C3468.18 4104.56 3463.15 4097.1 3458.14 4089.63C3455.09 4085.08 3452.05 4080.53 3449.01 4075.98C3448.38 4075.03 3447.75 4074.09 3447.1 4073.11C3440.36 4063.02 3433.66 4052.91 3426.97 4042.78C3425.67 4040.82 3424.38 4038.87 3423.08 4036.91C3421.27 4034.18 3419.47 4031.45 3417.67 4028.72C3417.12 4027.9 3416.58 4027.09 3416.03 4026.25C3415.54 4025.51 3415.05 4024.76 3414.54 4023.99C3414.11 4023.34 3413.68 4022.69 3413.24 4022.02C3412.21 4020.28 3412.21 4020.28 3411.21 4017.28Z" fill="white"/>
<path d="M4282.21 4017.28C4377.58 4017.28 4472.95 4017.28 4571.21 4017.28C4571.21 4030.15 4571.21 4043.02 4571.21 4056.28C4530.95 4056.28 4490.69 4056.28 4449.21 4056.28C4449.21 4162.87 4449.21 4269.46 4449.21 4379.28C4434.69 4379.28 4420.17 4379.28 4405.21 4379.28C4405.21 4272.69 4405.21 4166.1 4405.21 4056.28C4364.62 4056.28 4324.03 4056.28 4282.21 4056.28C4282.21 4043.41 4282.21 4030.54 4282.21 4017.28Z" fill="white"/>
<path d="M8174.21 4017.28C8188.73 4017.28 8203.25 4017.28 8218.21 4017.28C8218.25 4050.43 8218.29 4083.59 8218.31 4116.74C8218.31 4120.67 8218.31 4124.6 8218.32 4128.53C8218.32 4129.31 8218.32 4130.1 8218.32 4130.9C8218.33 4143.5 8218.34 4156.11 8218.36 4168.71C8218.38 4181.68 8218.39 4194.65 8218.4 4207.62C8218.4 4215.59 8218.41 4223.57 8218.42 4231.55C8218.44 4237.71 8218.44 4243.86 8218.43 4250.02C8218.43 4252.52 8218.44 4255.01 8218.45 4257.51C8218.48 4270.48 8218.21 4283.36 8217.31 4296.31C8217.19 4298.01 8217.19 4298.01 8217.07 4299.75C8215.47 4320.51 8211.36 4343.67 8195.4 4358.53C8176.58 4373.54 8153.89 4380.06 8130.21 4382.28C8129.29 4382.36 8128.36 4382.45 8127.41 4382.54C8118.9 4383.27 8110.43 4383.48 8101.9 4383.46C8101.2 4383.46 8100.51 4383.46 8099.79 4383.46C8072.87 4383.38 8045.06 4381.48 8020.21 4370.28C8019.21 4369.83 8018.21 4369.38 8017.18 4368.91C8003.27 4361.99 7994.66 4351.59 7989.52 4337.15C7983.95 4319.96 7983.03 4302.47 7983.08 4284.53C7983.08 4281.98 7983.08 4279.43 7983.07 4276.87C7983.07 4275.2 7983.07 4273.52 7983.08 4271.85C7983.07 4271.11 7983.07 4270.37 7983.07 4269.61C7983.1 4262.11 7983.71 4254.82 7984.21 4247.28C7998.07 4247.28 8011.93 4247.28 8026.21 4247.28C8026.35 4253.15 8026.5 4259.03 8026.65 4265.09C8026.82 4271.82 8027.01 4278.55 8027.21 4285.28C8027.26 4286.95 8027.26 4286.95 8027.31 4288.67C8027.72 4313.78 8027.72 4313.78 8039.14 4335.2C8055.65 4347.41 8081.32 4346.49 8100.83 4346.46C8101.88 4346.46 8101.88 4346.46 8102.95 4346.46C8134.32 4346.47 8134.32 4346.47 8161.02 4331.58C8173.21 4318.48 8173.35 4297.55 8173.37 4280.63C8173.37 4279.5 8173.38 4278.37 8173.38 4277.2C8173.4 4273.44 8173.4 4269.67 8173.41 4265.9C8173.42 4263.19 8173.43 4260.47 8173.44 4257.76C8173.47 4251.94 8173.48 4246.11 8173.5 4240.29C8173.52 4231.87 8173.55 4223.45 8173.58 4215.02C8173.63 4201.36 8173.67 4187.69 8173.71 4174.03C8173.75 4160.76 8173.79 4147.49 8173.84 4134.22C8173.84 4132.99 8173.84 4132.99 8173.84 4131.74C8173.86 4127.63 8173.87 4123.52 8173.88 4119.41C8174 4085.37 8174.11 4051.32 8174.21 4017.28Z" fill="white"/>
<path d="M8810.21 4017.28C8824.73 4017.28 8839.25 4017.28 8854.21 4017.28C8854.21 4123.87 8854.21 4230.46 8854.21 4340.28C8918.23 4340.28 8982.25 4340.28 9048.21 4340.28C9048.21 4353.15 9048.21 4366.02 9048.21 4379.28C8969.67 4379.28 8891.13 4379.28 8810.21 4379.28C8810.21 4259.82 8810.21 4140.36 8810.21 4017.28Z" fill="white"/>
<path d="M6980.21 4017.28C6994.73 4017.28 7009.25 4017.28 7024.21 4017.28C7024.21 4123.87 7024.21 4230.46 7024.21 4340.28C7088.23 4340.28 7152.25 4340.28 7218.21 4340.28C7218.21 4353.15 7218.21 4366.02 7218.21 4379.28C7139.67 4379.28 7061.13 4379.28 6980.21 4379.28C6980.21 4259.82 6980.21 4140.36 6980.21 4017.28Z" fill="white"/>
<path d="M10330.2 4017.28C10344.4 4017.28 10358.6 4017.28 10373.2 4017.28C10373.2 4136.74 10373.2 4256.2 10373.2 4379.28C10359 4379.28 10344.8 4379.28 10330.2 4379.28C10330.2 4259.82 10330.2 4140.36 10330.2 4017.28Z" fill="white"/>
<path d="M8492.21 4017.28C8506.4 4017.28 8520.59 4017.28 8535.21 4017.28C8535.21 4136.74 8535.21 4256.2 8535.21 4379.28C8521.02 4379.28 8506.83 4379.28 8492.21 4379.28C8492.21 4259.82 8492.21 4140.36 8492.21 4017.28Z" fill="white"/>
<path d="M11966.2 4405.28C11972.3 4406.17 11977.3 4409.26 11982.6 4412.17C11984.5 4413.15 11986.3 4414.12 11988.1 4415.08C11989.3 4415.7 11990.4 4416.32 11991.6 4416.96C11992.7 4417.52 11993.7 4418.08 11994.8 4418.67C11997.2 4420.28 11997.2 4420.28 11998.2 4423.28C11997.4 4424.94 11997.4 4424.94 11996 4426.77C11995.5 4427.46 11995 4428.16 11994.5 4428.87C11993.6 4430 11993.6 4430 11992.8 4431.15C11992.2 4431.94 11991.6 4432.73 11991 4433.55C11985.8 4440.53 11980.5 4447.44 11975.3 4454.34C11968.5 4463.23 11961.8 4472.24 11955.2 4481.28C11951 4480.73 11947.8 4479.78 11944 4477.77C11943.1 4477.28 11942.2 4476.79 11941.2 4476.28C11939.8 4475.5 11939.8 4475.5 11938.3 4474.71C11937.4 4474.19 11936.4 4473.67 11935.4 4473.14C11933 4471.86 11930.6 4470.57 11928.2 4469.28C11929.9 4464.89 11932.1 4460.93 11934.5 4456.9C11934.9 4456.17 11935.3 4455.44 11935.8 4454.69C11945.7 4438.06 11955.8 4421.59 11966.2 4405.28Z" fill="white"/>
<path d="M12369.2 4329.28C12384.4 4329.28 12399.6 4329.28 12415.2 4329.28C12415.2 4345.78 12415.2 4362.28 12415.2 4379.28C12400 4379.28 12384.8 4379.28 12369.2 4379.28C12369.2 4362.78 12369.2 4346.28 12369.2 4329.28Z" fill="white"/>
<path d="M11533.2 4329.28C11548.1 4329.28 11562.9 4329.28 11578.2 4329.28C11578.2 4345.78 11578.2 4362.28 11578.2 4379.28C11563.4 4379.28 11548.5 4379.28 11533.2 4379.28C11533.2 4362.78 11533.2 4346.28 11533.2 4329.28Z" fill="white"/>
<path d="M8491.21 3939.28C8506.39 3939.28 8521.57 3939.28 8537.21 3939.28C8537.21 3951.49 8537.21 3963.7 8537.21 3976.28C8522.03 3976.28 8506.85 3976.28 8491.21 3976.28C8491.21 3964.07 8491.21 3951.86 8491.21 3939.28Z" fill="white"/>
<path d="M10329.2 3939.28C10344.1 3939.28 10358.9 3939.28 10374.2 3939.28C10374.2 3951.49 10374.2 3963.7 10374.2 3976.28C10359.4 3976.28 10344.5 3976.28 10329.2 3976.28C10329.2 3964.07 10329.2 3951.86 10329.2 3939.28Z" fill="white"/>
</svg>
